/* XPM */
static char *character[] = {
/* columns rows colors chars-per-pixel */
"64 64 185 2 ",
"   c #323443",
".  c #3C3644",
"X  c #323845",
"o  c #3E3844",
"O  c #313D4B",
"+  c #3D3C4B",
"@  c #3C3F50",
"#  c #443545",
"$  c #4B3546",
"%  c #443A45",
"&  c #4B3C46",
"*  c #473C49",
"=  c #523F47",
"-  c #523C49",
";  c #5D3E4A",
":  c #563647",
">  c #663A4A",
",  c #76374B",
"<  c #2F414E",
"1  c #33464C",
"2  c #2E4451",
"3  c #2C4E59",
"4  c #2D4B57",
"5  c #3F4252",
"6  c #2D575D",
"7  c #335554",
"8  c #346B5F",
"9  c #34635B",
"0  c #295B64",
"q  c #295E68",
"w  c #28616A",
"e  c #27646C",
"r  c #347A66",
"t  c #256F76",
"y  c #23767C",
"u  c #247B7E",
"i  c #2A7F77",
"p  c #346E60",
"a  c #48434D",
"s  c #51464F",
"d  c #5C4248",
"f  c #564047",
"g  c #414455",
"h  c #44475A",
"j  c #564B53",
"k  c #5B4C53",
"l  c #63444A",
"z  c #69474A",
"x  c #64484B",
"c  c #734B4B",
"v  c #7B4D4C",
"b  c #79464F",
"n  c #625055",
"m  c #6A5459",
"M  c #685758",
"N  c #7D5954",
"B  c #735B5B",
"V  c #765754",
"C  c #75504F",
"Z  c #4E5167",
"A  c #51546B",
"S  c #55586F",
"D  c #565A71",
"F  c #7B5F60",
"G  c #5F627C",
"H  c #716363",
"J  c #7F6D6A",
"K  c #61647E",
"L  c #84384C",
"P  c #89384D",
"I  c #95394E",
"U  c #9C394F",
"Y  c #A53A50",
"T  c #AA3A51",
"R  c #B23A52",
"E  c #BC3B53",
"W  c #C13F54",
"Q  c #804F4D",
"!  c #94564F",
"~  c #984E55",
"^  c #825A54",
"/  c #9C5155",
"(  c #965951",
")  c #88524E",
"_  c #A35B51",
"`  c #A75258",
"'  c #BC4E59",
"]  c #83655C",
"[  c #88685E",
"{  c #8B635A",
"}  c #946359",
"|  c #A96256",
" . c #AC6658",
".. c #AE6A5B",
"X. c #B16E5D",
"o. c #B3715F",
"O. c #886665",
"+. c #926E61",
"@. c #936C69",
"#. c #A27866",
"$. c #A0746F",
"%. c #B57461",
"&. c #BA7C66",
"*. c #BC7F68",
"=. c #A47A73",
"-. c #AC7B73",
";. c #B27F76",
":. c #C74457",
">. c #CD4A59",
",. c #C94658",
"<. c #D24F5B",
"1. c #D5515C",
"2. c #D8545D",
"3. c #DE595F",
"4. c #D45B5F",
"5. c #C95B5D",
"6. c #DF5B60",
"7. c #E25D61",
"8. c #DF6161",
"9. c #E66162",
"0. c #E86363",
"q. c #EA6B67",
"w. c #EA6F68",
"e. c #EB746A",
"r. c #ED7B6D",
"t. c #28847D",
"y. c #2B8C7D",
"u. c #2A837A",
"i. c #2E917D",
"p. c #369A77",
"a. c #349D7A",
"s. c #349677",
"d. c #358C6F",
"f. c #36A57C",
"g. c #9B8279",
"h. c #BD8169",
"j. c #BC8479",
"k. c #A2877C",
"l. c #C0866D",
"z. c #C2886E",
"x. c #C58D71",
"c. c #C4897D",
"v. c #CB8D7F",
"b. c #C79074",
"n. c #C99476",
"m. c #CD9B7C",
"M. c #CB9778",
"N. c #EF8672",
"B. c #F18E75",
"V. c #F29478",
"C. c #F19177",
"Z. c #656984",
"A. c #6D718E",
"S. c #7F879D",
"D. c #7D8796",
"F. c #A98C80",
"G. c #AF9183",
"H. c #B39485",
"J. c #BB9787",
"K. c #B58F82",
"L. c #8791A4",
"P. c #95A2B0",
"I. c #CA8F81",
"U. c #D59685",
"Y. c #E39B89",
"T. c #D1A281",
"R. c #D8AA8B",
"E. c #DAB18C",
"W. c #CEA793",
"Q. c #DDB690",
"!. c #DEB892",
"~. c #E6A08D",
"^. c #E8A590",
"/. c #ECAB95",
"(. c #E1B59D",
"). c #EEB29A",
"_. c #E5B89F",
"`. c #F1B49B",
"'. c #F4B99F",
"]. c #EABCA1",
"[. c #F6BDA1",
"{. c #F9C2A6",
"}. c #FDCAAB",
"|. c #F9C3A6",
" X c None",
/* pixels */
" X X X X X X X X X X X X X X X X X X X X X X X X X X X X X X X X X X X X X X X X X X X X X X X X X X X X X X X X X X X X X X X X",
" X X X X X X X X X X X X X X X X X X X X X X X X X X X X X X X X X X X X X X X X X X X X X X X X X X X X X X X X X X X X X X X X",
" X X X X X X X X X X X X X X X X X X X X X X X X X X X X X X X X X X X X X X X X X X X X X X X X X X X X X X X X X X X X X X X X",
" X X X X X X X X X X X X X X X X X  X            X X X X X X X X X X X X X X X X X X X X X X X X X X X X X X X X X X X X X X X X",
" X X X X X X X X X X X X X X X X X  & / / / / / ;  X X X X X X X X X X X X X X X X X X X X X X X X X X X X X X X X X X X X X X X",
" X X X X X X X X X X X X X X X X X  ; 0.7.<.<.<.;  X X X X X X X X X X X X X X X X X X X X X X X X X X X X X X X X X X X X X X X",
" X X X X X X X X X X X X X X X X X  ; 1.6.W P P $    X X X X X X X X X X X X X X X X X X X X X X X X X X X X X X X X X X X X X X",
" X X X X X X X X X X X X X X X X X  : I I I .   $ > l l - X  X X X X X X X X X X X X X X X X X X X X X X X X X X X X X X X X X X",
" X X X X X X X X X X X X X X X X X X X          I <.2.5.~   . : - - - - - - - - - - - - - -  X X X X X X X X X X X X X X X X X X",
" X X X X X X X X X X X X X X X X X X Xo o o     P R , . . . $ 7.9.0.0.0.0.0.0.q.0.0.q.0.0.0.b # o  X X X X X X X X X X X X X X X",
" X X X X X X X X X X X X X X X X X  ; 0.7.E .         > E W W W E 7.0.N.r.r.V.V.V.V.V.0.0.0.0.0.~      X X X X X X X X X X X X X",
" X X X X X X X X X X X X X X X X X  : E W E .     L E E ,.7.0.0.0.0.0.0.0.0.0.0.q.V.0.0.0.0.0.0.9.`      X X X X X X X X X X X X",
" X X X X X X X X X X X X X X X X X  . # $ #       P E E W W 0.0.0.0.0.7.0.0.0.w.B.V.B.0.B.q.0.0.9.8.`      X X X X X X X X X X X",
" X X X X X X X X X X X X X X X X X            P U R E ,.3.7.0.0.0.0.0.0.0.0.0.e.V.V.V.0.B.w.0.7.0.0.'      X X X X X X X X X X X",
" X X X X X X X X X X X X       X X X X X X    Y E E W >.0.0.0.0.0.0.0.0.0.0.0.0.e.e.e.0.e.0.0.2.2.6.' L      X X X X X X X X X X",
" X X X X X X X X X X X X  V ] n    X X X X    Y W E W >.0.0.0.7.0.0.0.0.0.0.0.0.0.0.0.0.0.0.0.7.6.7.>.T      X X X X X X X X X X",
" X X X X X X X X X X X X  #.x.B      X X X    Y E E W W 1.1.<.1.2.7.2.7.0.0.0.0.0.0.0.0.0.0.9.6.1.1.>.T      X X X X X X X X X X",
" X X X X X X X X X X X X  ] +.V f =  X X X    Y E W E E W W W >.>.7.<.3.0.0.0.7.0.0.0.9.0.9.9.1.>.:.E T      X X X X X X X X X X",
" X X X X X X X X X X X X X    c _ v      X    Y E E E E >.1.W 2.7.3.3.3.7.3.3.3.6.6.6.6.6.6.6.6.7.<.E T      X X X X X X X X X X",
" X X X X X X X X X X X X X    z ! c      X    Y E W E E W W W E E W E E W E E E E E E E E E E E E E E T      X X X X X X X X X X",
" X X X X X X X X X X X X XX X   X X X    X    Y E E E R E R E E E E R E R E R E E R E E E E R E E E R Y      X X X X X X X X X X",
" X X X X X X X X X X X    D.P.D.L.L.A.Z.          L ,                                                        X X X X X X X X X X",
" X X X X X X X X X X X    D.P.L.A.L.A.Z.      U R E E ,                                                      X X X X X X X X X X",
" X X X X X X X X X X X    g g g g h @ @       # $ $ $ #   s c.c.c.c.c.c.c.c.c.c.c.c.c.c.c.c.c.c.c.c.$.       X X X X X X X X X X",
" X X X X X X X X X              .             P $ X   m ;.j.Y.[.[.[.[.].[.[.[.[.[.[.[.[.[.[.[.[.[.[._.H.     X X X X X X X X X X",
" X X X X X X X            Z D D D D Z         : # B $.j.Y.Y.Y.).}.|.=.J J J J F.}.}./.}.).{.F.J J O.g.(.     X X X X X X X X X X",
" X X X X X X X    X A A A Z.A.A.A.A.Z.A Z     X   $.^.`.`.`.`.`.}.}.G.j   M g.H.}.}.).}.'.{.J.M   j H.(.     X X X X X X X X X X",
" X X X X X X        S A.A.A.A.K G Z.S S S     m F j.`.}.}.}.}.}.}.}.[.$.F J.}.}.].F.F.F.F.F.(.H.F g.[.(.     X X X X X X X X X X",
" X X X X      + h h h A.A.A.A.D D G 5         c.j.I.`.}.}.}.}.}.}.}.)././.].}.}.(.H H H H F W.'././.`.(.     X X X X X X X X X X",
" X X X X      5 K K K K K K K K K K D         c.n $.).[.[.}.{.}.}.}.}.}.}.}.}.}.}.}.{.{.[.}.}.}.}.}.}.(.     X X X X X X X X X X",
" X X    . o o o o % o o o o o o o o o % o o   c.B -.Y.Y.).[.^.}.}.}.}.}.}.}.}.}.}.}.~.Y.~.{.}.}.}.}.}.(.     X X X X X X X X X X",
" X X    c _ _ _ _ _ _ _ _ _ _ _ _ _ _ _ _ _ . c.Y.Y.Y./.}.}.}.}.}.}.}.}.}.}.}.}.}.}.}.}.}.}.}.}.}.}.}.(.     X X X X X X X X X X",
" X X    v _ _ _ _ _ _ | _ | _ | _ _ _ _ _ _ X     . O.Y.Y.Y.Y.Y.Y.|.}.}.}.}.}.}.}.}.}.}.}.}.}.}.}.[.Y.I.     X X X X X X X X X X",
" X X    c _ ..z.z.z.z.h.z.z.h.h.o...&._ _ _ ( %   @.U.Y.Y.Y.~.|.|.}.}.}.}.}.}.}.}.}.}.}.}.}.}.}.}.}.[.I.     X X X X X X X X X X",
" X X    v _ | X.b.z.x.x.x.x.o. .| | | _ _ & & .   * j j ] Y.Y.^.^.^.^.^.^.^.^.^.^.^.^.^.^.^.^.^.^.^.I.*    X X X X X X X X X X X",
" X X    N h.h.h.x.b.x.x.x.x.h.h.5.o._ _ ( .             * m M M Y.Y.Y.Y.Y.Y.Y.Y.Y.Y.Y.Y.Y.Y.Y.Y.-.m k    X X X X X X X X X X X X",
" X XX X N h.z.b.x.n.b.b.x.x.x.x.h...! d d w 0 0 0 2 .           F F F F F F F F F F F F F ] B H k          X X X X X X X X X X X",
" X X    N h.n.m.m.m.b.m.x.x.x.x.h.h.} X X y.i.y.u 3   % z d                                 X f z -        X X X X X X X X X X X",
" X X    [ x.m.!.!.Q.x.Q.n.x.x.x.x.x.g.  X f.f.i.t.3   & c z     3 3 3 3 O             3 3 X   d b l     3  X X X X X X X X X X X",
" X X    [ b.M.E.Q.E.M.m.b.x.x.x.x.z.#.  X f.f.y.u 3   % f &     t.t.t.i 0             i u 2   % f %   < t.     X X X X X X X X X",
" X X    [ x.b.m.E.n.M.x.n.b.x.x.x.x.#.    f.f.f.t.3   x | (     f.f.f.f.8 1 1   X 1 1 f.u 2   c | v   1 a.     X X X X X X X X X",
" X X    [ x.m.Q.Q.Q.Q.x.E.M.x.x.x.x.#.    f.f.f.t.3   M b.#.    f.f.f.f.f.a.r   1 f.p.f.u 2   ] x.+.  O y      X X X X X X X X X",
" X X    [ b.b.x.x.x.x.x.x.x.x.x.x.x.#.  X f.f.f.t.3 . M x.#.X   f.f.f.f.9 8 r   1 a.  f.u 2   ] x.+.  O y      X X X X X X X X X",
" X X    [ m.R.M.Q.Q.Q.x.x.x.x.x.x.x.#.  X f.f.f.7       X .     f.f.f.f.9 8 r   1 p.  a.u 2   ] x.+.  O y      X X X X X X X X X",
" X X    [ n.b.b.n.n.n.x.x.x.x.x.x.x.#.  X f.f.f.p.p.9   k U.W.  1 a.f.f.p.a.r   1 f.s.t.u 2   O.x.+.  O y      X X X X X X X X X",
" X X    [ z.b.z.x.x.x.x.x.x.x.x.x.z.#.  X f.f.f.f.f.8 . m ~.].    p.f.f.f.f.p.d.d.f.f.a.u 2   C  .^     2      X X X X X X X X X",
" X X    [ x.z.b.x.x.x.b.x.x.z.x.x.x.#.  X f.f.f.f.f.p   m ^._.    u.a.f.f.f.f.a.i.f.t.t.u 2   N &.{            X X X X X X X X X",
" X X    N h.z.b.x.x.x.b.o.h.h.o.o.o.{   X y.i.s.y.y.0   m Y.R.    u.f.f.f.f.f.f.s.f.i.u u 2   V o.^   + @.     X X X X X X X X X",
" X X    N h.z.z.b.x.x.x.%.h.&.o.o...! z l 0 0 0 6 0 2   s @.O.  6 t.i.i.i.i.i.i.i.i.i.y y 2   c _ v . a /.     X X X X X X X X X",
" X X    ^ &.h.h.x.x.x.x.b.h.&.&.&.o._ _ _                   .   w w w e w w w w w w e y e O   d Q l   a H.     X X X X X X X X X",
" X X    z ) ( %.x.x.x.x.b.o. .| _ _ _ _ _             o & &     2 2 X       O O X 2 2 y 3 X   o & %        X X X X X X X X X X X",
" X X X X    M h.l.l.l.l.h.z.h.X._ _ _ _ (             ; ! v     t t O       4 q O t t t t < . l ! c        X X X X X X X X X X X",
" X X X X    d _ _ ( ( _ _ ( _ _ _ ( _ _ (                                                                X X X X X X X X X X X X",
" X X X X X X X  .   .                                                                                    X X X X X X X X X X X X",
" X X X X X X X                        .                                                                    X X X X X X X X X X X",
" X X X X X X X X X X X X X X X X X X X X X                                                                 X X X X X X X X X X X",
" X X X X X X X X X X X X X X X X X X X X X                   X X X X X X X X X X X X X X                   X X X X X X X X X X X",
" X X X X X X X X X X X X X X X X X X X X                     X X X X X X X X X X X X X X X               X X X X X X X X X X X X",
" X X X X X X X X X X X X X X X X X X X X                   X X X X X X X X X X X X X X X X X             X X X X X X X X X X X X",
" X X X X X X X X X X X X X X X X X X X X                 X X X X X X X X X X X X X X X X X X             X X X X X X X X X X X X",
" X X X X X X X X X X X X X X X X X X X X             X X X X X X X X X X X X X X X X X X X X           X X X X X X X X X X X X X",
" X X X X X X X X X X X X X X X X X X X X X X X X X X X X X X X X X X X X X X X X X X X X X X         X X X X X X X X X X X X X X",
" X X X X X X X X X X X X X X X X X X X X X X X X X X X X X X X X X X X X X X X X X X X X X X X X X X X X X X X X X X X X X X X X",
" X X X X X X X X X X X X X X X X X X X X X X X X X X X X X X X X X X X X X X X X X X X X X X X X X X X X X X X X X X X X X X X X"
};
