/* XPM */
static char *rescaled[] = {
/* columns rows colors chars-per-pixel */
"64 64 196 2 ",
"   c #323443",
".  c #3A3544",
"X  c #343947",
"o  c #3A3947",
"O  c #303C4A",
"+  c #3D3C49",
"@  c #3C3F50",
"#  c #4D3546",
"$  c #4A3C46",
"%  c #413E4A",
"&  c #453746",
"*  c #523F47",
"=  c #563D49",
"-  c #5C3949",
";  c #6D374A",
":  c #643E4C",
">  c #7D384C",
",  c #2F414E",
"<  c #32424A",
"1  c #2E4451",
"2  c #2D4A56",
"3  c #2C4F5B",
"4  c #3A4551",
"5  c #2D535C",
"6  c #325153",
"7  c #335E58",
"8  c #34645B",
"9  c #295D66",
"0  c #347765",
"q  c #256D74",
"w  c #23797E",
"e  c #277878",
"r  c #43404C",
"t  c #49444E",
"y  c #5B4248",
"u  c #434555",
"i  c #4B4651",
"p  c #4E4953",
"a  c #464A59",
"s  c #504750",
"d  c #554A53",
"f  c #5B4D54",
"g  c #534E59",
"h  c #56515B",
"j  c #5A525B",
"k  c #595157",
"l  c #604449",
"z  c #6A494D",
"x  c #754B4B",
"c  c #7A4C4C",
"v  c #644F55",
"b  c #63555D",
"n  c #68575D",
"m  c #66595E",
"M  c #6C595E",
"N  c #695455",
"B  c #735B5F",
"V  c #795D5F",
"C  c #785552",
"Z  c #7A605A",
"A  c #4A4D62",
"S  c #52556C",
"D  c #565970",
"F  c #5B5F78",
"G  c #6C5D61",
"H  c #675A60",
"J  c #755D60",
"K  c #785F61",
"L  c #5D6079",
"P  c #6F6164",
"I  c #746163",
"U  c #7B6565",
"Y  c #7D6867",
"T  c #7C6B69",
"R  c #766967",
"E  c #61657F",
"W  c #7F716D",
"Q  c #85384D",
"!  c #90394E",
"~  c #9B394F",
"^  c #A13A50",
"/  c #AD3A51",
"(  c #B53B52",
")  c #BD3B53",
"_  c #C03E54",
"`  c #814F4D",
"'  c #8D534E",
"]  c #87514D",
"[  c #95564F",
"{  c #8C4B53",
"}  c #855A54",
"|  c #9F5056",
" . c #905B54",
".. c #954E54",
"X. c #A45B51",
"o. c #AE5459",
"O. c #B74555",
"+. c #88675D",
"@. c #946B5F",
"#. c #AA6457",
"$. c #AE6A5A",
"%. c #A76054",
"&. c #B16F5E",
"*. c #B2715F",
"=. c #806967",
"-. c #8E6C60",
";. c #826C69",
":. c #896867",
">. c #966E6B",
",. c #87736E",
"<. c #89746F",
"1. c #967162",
"2. c #987263",
"3. c #9C726D",
"4. c #8A7670",
"5. c #8C7B73",
"6. c #917A74",
"7. c #B57562",
"8. c #B87A65",
"9. c #BC7F68",
"0. c #AA7B73",
"q. c #A87B68",
"w. c #CE4B59",
"e. c #C64356",
"r. c #D24F5B",
"t. c #D6535C",
"y. c #D9585E",
"u. c #C45A5D",
"i. c #DF5B60",
"p. c #D55E60",
"a. c #E35E61",
"s. c #E86363",
"d. c #E86765",
"f. c #EC766B",
"g. c #EC796C",
"h. c #27817E",
"j. c #2B8A7D",
"k. c #2A847B",
"l. c #2F937D",
"z. c #339D7B",
"x. c #359373",
"c. c #35886D",
"v. c #36A57C",
"b. c #908178",
"n. c #958178",
"m. c #8F8077",
"M. c #BE836A",
"N. c #B4826C",
"B. c #B88278",
"V. c #B78B7F",
"C. c #A0857B",
"Z. c #C1886E",
"A. c #C58D71",
"S. c #C0877B",
"D. c #C79074",
"F. c #CD9A7B",
"G. c #C99477",
"H. c #EF8672",
"J. c #F08B74",
"K. c #F19177",
"L. c #F29478",
"P. c #D0A07F",
"I. c #666A85",
"U. c #6D718E",
"Y. c #798098",
"T. c #818A9F",
"R. c #AC8E81",
"E. c #BB9989",
"W. c #B69485",
"Q. c #8994A4",
"!. c #95A2B0",
"~. c #C98F81",
"^. c #D59384",
"/. c #E39B89",
"(. c #C9A28F",
"). c #D3A584",
"_. c #D9AF8B",
"`. c #D7AB88",
"'. c #D4AC96",
"]. c #D9A692",
"[. c #DEB892",
"{. c #DDB494",
"}. c #DBB48F",
"|. c #E6A18E",
" X c #E8A490",
".X c #EDAD96",
"XX c #EFB098",
"oX c #F2B69C",
"OX c #F3B89E",
"+X c #EABAA0",
"@X c #F5BCA1",
"#X c #F8C1A4",
"$X c #FBC6A8",
"%X c #FDCAAB",
"&X c #F6C1A5",
"*X c #EFC0A4",
/* pixels */
"<.,.,.,.,.,.,.,.,.,.,.,.,.T R ;.J J I R J G b j J K K U ;.,.,.,.,.,.,.,.,.,.,.<.,.,.,.,.,.;.T R U J J T I M M j M J I U :.;.,.,.",
"<.,.,.<.,.,.,.,.4.,.,.,.,.,.,.,.4.,.,.Y K J J j J J K K Y U ;.<.,.<.,.<.<.,.<.,.,.,.,.4.,.,.,.,.4.,.;.=.Y J V j M J J J I =.;.<.",
"I J I I I J J I I I I I I J J I J I J J J G b g n B G G B J I I I I I J I I G I J I J J I I I I I V I I M B M j b M M B G J J U ",
"j j j j j j j g h h j j h j j j j j j h j j j j h j j j j j h j h j j j j j j h h h j j j j h j j j j S j j j j j j j j j j j j ",
";.;.;.;.;.=.K n j J ;.;.;.;.;.;.M s s i s s s s K ;.,.T ;.,.,.T ;.;.;.;.=.=.U B j M U ;.;.;.;.;.;.;.;.;.;.;.;.;.;.,.;.;.;.;.;.;.",
"<.<.,.,.;.;.=.M b K K ;.;.4.,.4.j   = X.| | | X.v ;.5.4.,.,.,.,.<.,.<.,.,.;.;.V h J K =.,.,.,.,.,.<.,.,.<.<.4.5.5.5.6.5.,.,.4.4.",
"<.,.,.,.<.<.Y M h b H H T I R 4.j   ; a.a.t.t.t.- R 5.4.<.<.,.,.<.,.,.,.<.,.;.I j j H G R G I ,.,.,.<.,.<.,.<.<.4.4.5.5.4.,.,.4.",
"<.,.<.,.,.G I M j J b R ,.;.;.,.j X : i.r.) Q Q # j P H m I ,.,.,.,.,.,.,.R J V j M H G ;.;.,.;.,.,.,.,.,.,.<.,.,.4.4.4.,.,.,.4.",
"4.,.;.,.T J J j j K G K ,.,.,.,.n r : ^ ^ ^ .   & # = = $ p I U I R R R I M n b p b N b J I ,.,.,.,.,.,.,.,.,.,.4.,.,.,.,.,.,.4.",
",.R G R H H n b b K K K =.,.,.,.,.<.G           ~ t.p.u.{   . = y = = = = = = = = = = = = = R R T ,.4.,.,.,.4.,.,.,.,.,.,.,.,.4.",
"U U U U K J J b g G J J U K U U U U b           ~ ) ;       = s.s.s.a.s.s.s.s.s.s.s.s.s.s.s.$   g U U U U U U U U R Y U R U U U ",
"j j h j h j j h j h h h j j j j %   z s.a.) .         Q ) ) ) ) ) s.s.J.f.H.L.L.L.L.K.s.s.s.s.s.{   % h h h j g h h j j j j h j ",
"=.=.=.=.=.;.Y ;.=.;.=.;.Y =.=.=.k   - ) ) ) .     ~ ) ) r.a.s.s.s.s.s.s.s.s.s.s.d.J.s.s.s.s.s.s.a.{   s =.K J g H K =.=.=.=.=.=.",
"4.5.5.4.4.,.,.,.,.,.,.,.4.,.4.,.k   . # # #       ~ ) ) _ r.s.s.s.s.s.s.s.s.s.f.J.L.J.d.K.s.s.s.s.p...o % U J H G U ;.;.,.,.4.4.",
"4.4.6.5.,.,.,.4.,.,.,.,.4.;.,.,.k             ~ ^ ( ) r.i.a.s.s.s.s.s.s.s.s.s.g.L.L.K.s.L.d.s.s.s.a.o.  . H H g G K =.4.,.,.,.4.",
"4.4.5.5.4.,.,.,.,.,.,.,.j g d R R m m m d     ( ) ) ) t.s.s.s.s.s.s.s.s.s.s.s.d.f.f.f.s.f.s.s.t.i.i.O.; . d K b n J G ;.,.,.,.4.",
",.,.,.,.,.,.<.,.,.,.<.,.+ Z +.N d m ,.;.G     ( ) ) ) r.s.s.s.s.s.s.s.s.s.s.s.s.s.s.s.s.s.s.a.i.i.i.w.!   o J j G J G :.;.4.,.4.",
"4.,.<.,.,.,.,.,.,.<.,.,.+ N.A.v   4 G I j     ( ) ) ) w.t.t.t.r.p.a.i.a.s.s.s.s.s.s.a.s.s.s.a.i.r.p.w.!   . H h B B K =.;.,.,.,.",
"=.=.=.;.;.:.;.;.=.=.=.=.d +.+.N l l m n Z     ( ) ) ) ) e.e._ r.w.a.r.a.s.s.a.s.s.s.s.s.s.s.s.t.w._ ) !   + J j b J K =.=.=.=.;.",
"j h A j g h h h h h j j j X   ` X.`   X p     ( ) ) ) ) e.r.e.a.a.a.i.i.a.a.i.i.i.a.i.i.i.a.i.i.a.w.) !   X h h h h j h h j j h ",
"U U U Y U I B b j J U Y U o   x ' z   o I     ~ ^ ( / ^ ^ ^ ^ ^ ^ ^ ^ ^ ^ ^ ^ ^ ^ ^ ^ ^ ^ ^ ^ ^ ^ ^ ^ Q   . U U U U U R U U U U ",
"4.,.,.;.;.Y K M j J I =.;.+           + T         ~ ;                                                     + 4.4.4.5.4.4.4.,.,.4.",
",.,.,.,.;.=.U M j M m     Q.!.T.T.Q.U.I.      ( ) ) _ ;                                                   + 4.5.6.5.6.5.,.,.,.4.",
"4.,.,.4.,.J K M h M n     Q.!.U.T.Q.U.I.                  V /./././././././././././././././././././.0.    + ,.,.,.4.5.4.4.4.,.4.",
",.,.4.,.=.G J H j K b     u a u u u 4 @       ~ #     =.S.~. X#X@X@X@X@X$X@X@X$X@X$X@X$X@X$X@X$X#X@X@Xn.  + 4.,.,.,.,.,.,.,.,.4.",
",.U G R H H H j d + +                         # . 3.S.^./././. X%X%X%X%X%X%X%X%X%X%X%X%X%X%X%X%X%X%X%XE.  + ,.,.<.,.,.,.,.<.,.4.",
";.=.;.;.Y K N i +         S D D D D A             B. XoXOXoXoXoX%X%XC.,.;.,.,.E.%X@X.X%XXX$X6.;.,.;.R.E.  + ;.;.;.;.;.;.;.;.;.,.",
"j j j j j j i       D D S U.U.U.U.U.I.D S     3.3.^.oX%X%X%X%X%X%X%XE.%   T R.'.%X$X+X%X@X$XW.h X P (.E.  . j j S j j j j j j j ",
"J J I I j d %       D U.U.U.U.F E I.D D S     ^.0.^.oX%X%X%X%X%X%X%X@X>.J (.%X%X+XR.R.R.R.R.&X0.K W.@XE.  o M g j J I J J J I I ",
"4.5.5.5.d     X A A A U.U.U.U.S F E u         ^.f B..XoX@X$XOX%X%X%XoXXXXX@X%X%X{.;.,.,.W ,.*XoX.X.XoXE.  o M b G J Y ,.,.,.,.4.",
"4.4.W T i     @ I.I.F I.I.E E E E E S         ^.V S././.oXOX.X%X%X%X%X%X%X%X%X%X%X%X&X&X@X%X%X%X%X%X%XE.  o M j G J J ;.,.,.,.4.",
"4.4.%   % $ $ $ & $ $ $ & & $ $ $ $ $ $ $ $   B.S.S.^.XX@X$X@X$X@X%X%X%X%X%X%X%X%X#X X X X$X%X%X%X$X@XW.  . K b M M b ,.,.,.,.4.",
"<.,.%   c X.X.X.X.X.X.X.X.X.X.X.X.X.X.X.X.X..       >././././././.%X%X%X%X%X%X%X%X%X%X%X%X%X%X%X%XXX/.0.  o b h M I ;.;.;.,.,.,.",
"<.,.%   c X.X.X.X.X.X.X.X.X.X.X.X.X.X.X.X.X.X..   9././././. X%X%X%X%X%X%X%X%X%X%X$X%X%X%X%X%X%X%X%X@X0.  + B j M V J J ;.;.,.,.",
",.,.%   c X.7.A.Z.A.A.A.A.A.A.A.*.&.9.X.[               B /././././././././././././././././././././.0.  o J Z j M J K V J K =.,.",
"b j o   c X.X.&.A.A.A.A.A.A.7.#.%.X.%.X.[               % d d d /./././././././././././././././.3.d $ + h j j h g b b j b b b b ",
"M M +   +.M.M.Z.A.A.A.A.A.A.Z.M.Z.*.] $ i q q q q ,             d d d d d g d d d d d s d d d d %       % H M M M G H G M H G M ",
"<.,.r   } 9.A.A.A.A.A.A.A.A.A.A.8.$.`   < l.j.l.w 1   y x y                                   l c =     + ,.<.<.,.,.<.4.,.,.,.,.",
"<.,.%   } M.F.).).).A.).D.A.A.A.Z.8.+.  < v.v.j.h.1   $ y *     9 9 9 9 O           X 9 9     * l $   , 9 d k 4.6.b.b.5.,.,.,.4.",
"<.,.r   -.Z.).[.[.[.D.[.D.A.A.A.Z.A.2.  < v.v.j.w 1   $ l *     j.k.j.j.3           O k.w X   = l $   2 e .   ,.,.4.5.4.4.4.,.4.",
"<.,.%   -.A.F.`.}.).A.`.A.A.A.A.A.A.1.  < v.v.v.k.1   C &.C     v.v.v.v.0 8 6   X 7 8 v.w O   } $.C X 6 k.    ,.,.,.,.,.,.,.,.4.",
"<.R %   -.A.D.F._.G.G.A.G.A.A.A.A.A.1.  < v.v.v.k.1   +.A.-.    v.v.v.v.x.v.0   6 v.x.v.w O   2.A.Z   2 q     ;.,.,.,.,.,.,.,.4.",
",.;.%   -.A.F.}._._.`.A._.D.A.A.A.A.2.  < v.v.v.e <   V q.Z     v.v.v.v.7 0 0   6 c.X z.w O   2.A.Z   2 q     ;.<.,.,.,.,.,.,.,.",
"M m +   -.A.A.A.A.A.A.A.A.A.A.A.A.A.1.  < v.v.v.6               v.v.v.v.7 0 0   6 c.X v.w O   2.A.Z   2 q     b H m m M n H n H ",
"n n +   -.P.).G.[.[.[.A.A.A.A.A.A.A.1.  < v.v.v.v.v.8   K .X'.    v.v.v.v.v.0   6 v.v.w w O   2.A.Z   2 q     g h H n H n b b H ",
",.,.%   -.A.A.A.A.A.A.A.A.A.A.A.A.A.1.  < v.v.v.v.v.8   B XX'.    v.v.v.v.v.v.v.v.v.v.v.w O   ` X.z           j G J ;.;.,.,.,.,.",
"<.4.r   -.A.A.A.A.A.A.A.A.A.A.A.A.A.1.  < v.v.v.v.v.8   B .X'.    h.z.v.v.v.v.l.j.z.h.w w O   -.M.V           h M U ;.,.,.,.,.4.",
"4.5.r   C 8.A.A.A.A.A.A.$.Z.*.#.#.#.}   O k.k.k.k.w 5   V /.~.    z.v.v.v.v.v.v.z.v.z.w w O   ] #.z   f 0.    g M K ;.;.,.,.,.4.",
"4.<.r   } M.A.A.A.A.A.A.8.A.M.7.7.*.[ x z 3 3 3 3 3 <   s K N   9 j.j.j.j.j.j.k.j.j.h.w w O   ` X.z   B ].    j M B b <.<.,.,.<.",
"<.<.%   } *.*.7.A.A.A.A.A.*.&.*.&.$.X.X.[                       3 3 3 3 3 3 3 3 3 3 3 w 3 X   * l $   i T p p h M V I =.,.<.,.<.",
"<.<.j d z c  .7.A.D.A.D.A.7.&.%.X.X.X.X.[             $ l $     3 3 O       1 1 O 3 3 w 3 O   * y $     o B V j M V I U ;.,.<.<.",
"M P M I t   N 7.8.7.7.8.7.8.7.#.X.X.X.X.[             y x y     9 9 O       1 2 O 9 9 9 9     y x y   X t M n h j M M J G G J G ",
"j b f j i % l [ ' ' ' ' ' ' ' ' ' ' ' ' `                                                             < v b b j b j b j j j b j ",
",.,.,.;.:.U d                                                                                         t I ,.;.,.,.;.,.,.,.,.,.,.",
",.,.,.,.,.=.f                                                                                           + ,.5.5.5.m.6.5.,.,.,.<.",
",.,.<.,.,.Y Y M h b b b Y P R <.,.,.,.,.T                                                               + ,.,.<.<.4.6.5.<.,.,.<.",
",.,.,.<.;.j B G j J b R ,.;.,.,.4.,.,.T                   d ,.,.,.,.4.,.,.P H K h G B b                 + ,.,.,.<.<.<.<.<.<.,.<.",
"<.,.T ;.R I J j b J B Y ;.,.,.<.,.,.,.T                   d <.,.,.;.;.;.R I J H g J J J J .           i R 4.,.,.<.<.,.,.<.<.<.<.",
"<.T J T J G n n j K J U U ,.,.<.4.,.,.T                 i T ,.,.,.R T Y J J H M j J K K Y J o         s 4.,.,.,.<.,.,.,.,.<.<.<.",
"P I I I J J B N h M B J J I I I I J I G             r d j I I I I I I I J J G n g b J G J J o X     + j I J J J I I I I I I I I ",
"S j j j j j j S j j j j j j j j j j j j i s i u i p g j j j j j h j j j j S j j j j j j j j X     + d h j j j h g h j j j j j j ",
":.;.,.;.;.;.;.;.;.;.;.;.;.;.;.;.;.;.;.;.;.I M h B U =.=.;.;.;.;.;.,.;.;.=.;.;.:.;.=.;.;.;.;.h d d G ;.;.=.=.J j n K ;.;.;.;.;.;.",
"4.4.6.5.4.;.4.;.,.,.,.,.,.,.,.,.,.;.R G n n b h V V =.,.<.,.<.<.,.4.5.m.<.<.<.,.,.,.,.,.,.,.;.4.,.4.R P H n b j G J Y ;.,.,.,.<.",
"4.5.b.b.5.4.4.4.4.4.,.4.4.4.,.4.4.,.,.;.G G V j I M I <.<.<.<.<.<.<.b.b.5.5.<.<.4.4.4.,.4.4.4.4.4.5.;.,.R n K b M J m ,.,.4.4.4."
};
