/* XPM */
static char *closed_door_scaled[] = {
/* columns rows colors chars-per-pixel */
"64 64 76 1 ",
"  c #56505B",
". c #5C535C",
"X c #63565D",
"o c #64585E",
"O c #6A595E",
"+ c #705D5F",
"@ c #585560",
"# c #5B5B66",
"$ c #5C5D68",
"% c #665B60",
"& c #6A5E62",
"* c #615F69",
"= c #735E61",
"- c #5E606B",
"; c #6C6063",
": c #64656E",
"> c #69676F",
", c #726365",
"< c #7D6361",
"1 c #7B6867",
"2 c #7E6D6A",
"3 c #606570",
"4 c #636B76",
"5 c #696A73",
"6 c #666E78",
"7 c #6C6F78",
"8 c #6A727C",
"9 c #71757D",
"0 c #826561",
"q c #856B65",
"w c #8A6962",
"e c #826D6A",
"r c #87736E",
"t c #89746E",
"y c #8E796F",
"u c #987064",
"i c #9D7769",
"p c #9E796A",
"a c #947D71",
"s c #9A7F71",
"d c #A37E6E",
"f c #9C8273",
"g c #A4806F",
"h c #A58371",
"j c #A98673",
"k c #A28876",
"l c #AB8975",
"z c #A68B78",
"x c #AC8E79",
"c c #B08F79",
"v c #B4957D",
"b c #B6987F",
"n c #6F7881",
"m c #757E86",
"M c #7B7F86",
"N c #7D8187",
"B c #778088",
"V c #798289",
"C c #7F888F",
"Z c #81868B",
"A c #828C92",
"S c #869096",
"D c #889297",
"F c #8B969B",
"G c #8E999D",
"H c #B69980",
"J c #B99D82",
"K c #BBA185",
"L c #BFA789",
"P c #929DA0",
"I c #95A1A4",
"U c #99A5A7",
"Y c #9BA7A9",
"T c #9CA8AA",
"R c #C1AB8D",
"E c #C6B392",
/* pixels */
"trrrrrrrrr,,%                                      ...O ++0=qerr",
"trrrrrrr;&  5899999899999999979NN9NZZZZ9M9999979999>  X.++++<0et",
",=,=====55mm4$$$----------------:-----:------------>Bm5:XO++===,",
". ....  8n##@  @                                   .#-98  .. ..@",
"eeee2 3M@ =&wuuuuO.uuuuuuuuuuu0..<uuuuuuuuuuu.Ouuuuw++ .m: eqeer",
"ttr,%7$#tyjjjjjjj;XjjjjjjhjljjdXOjjjjjjjjjjgu.;jjjjkjj<<$$7&,rrt",
"tr1%:n#&xvxyzvvlpO.vvvvvltzvvxgo&vvvvzyzcgcgi.,vvvvzyfgi%#n:%2rt",
"tt& M3 avvf svvvgOovvvvvf fvvvjo&vvvvf fbbccg.,vvvvf fcg0 3m &rt",
"t; 96 evvvcdcvvvjoovvvvvlgcvvvgX&vvvvxhxvvvvp.,vvvHldcvvd= 6n =t",
"tO 96 rvvvvvvvvvgO.bvvvvvvvvvvgX&vvvvvvvvvvvg.,vvvvvHcHvl= 69 1t",
"1%*93@avvvvvvvvvhO.vvvvbRRLbKvgX&vvvvvvvvvvvg ,vvvvvvvHvl0.3n*%1",
". 9m@;vvvvvvvvvvhOovvLvLRRbvvvgX;vvvvvvvvvvvg.,vvvvvvvcHlu%.nn .",
", 9n@&vvvvvvvvvvjO.bvKvLRLbvvvgX%vvvvvvvvvvvp.,vvvvvcHccju%@n9 =",
"e 9n@;vvvvvvvvvvgOobvvvvvvvvvvgX;vvvvvvvvvvvg.,vvvvvHcHHju% n9.e",
"2 9n@;vvvvvvvvvvgOXvvvvvvvvvbvgX%vvvvvvvvvvvj.,vvvvvHHHcduX.nn 2",
"2.8n@;vvvvvvvvcdpOXvvvvvvvvvjliX;vvvvvvvvvggg.,vvvvvlcdpiu%.nn 2",
"2 9n@%sjjjjjjjjdwX.sjjjjjjjjjjfXXsjjjjjjjjhu0.%fdjjjjjjuuw.@n9 2",
"2 9n@ XO++++++++X  .+++++O++++.  X++++++++O+X  X====O=+++X @n9 2",
"1 9n@ @######################@############$#########$$###@ @n9 1",
"  9n@ -mmmmmmmBmmmmBmmBmmBBBBBBBBmmVmmmVmmmmmmBmMmmmmmmmn3.@n9  ",
", 9n@@8nAAAAAAAAAAAFGIYYYTTYYPAAAAAAAAAAAAAAAAAAAAAAAAnCn4@@n9 =",
"2 9n@@mAAAAAAAAAAAADDFGUFFGGGDAAAAAAAAAAAAAAAAAAAAAAAAAAm4@@n9 e",
"2 9n@@nAAZ #VAAAAAAAAGPPPPGDFAAAAAAAAAAAAAAAAAAAAAAM$ AAm4@@n9 2",
"2 9n@@nAAA8mCAAAAAAAAAAGPFGAAAAAAAAAAAAAAAAAAAAAAAACn9ACn4@@n9@2",
"2 9m@@4n4nnVmAAAAAAAAAAAAAAAAAASAAAAAAAAAAAAAAAAAAAAVn4444@@nn e",
"2 mm@@486nnn8mm8nnnnnnnnnnmnn9nnnnnnnnnnnmnnnnnnmnnnnn6444@@n8 2",
"1 mm@ @-------------------$---#:-----------$$---$$$-$:**$# @n9 1",
". Mm@                                            @         @n9 .",
"= ZV@                                                  .   @n9 &",
"2 ZN@ O<<<<<<<<<O  X<<<<<<<<<<X  O<<<<<<0<<<X  O<<<<0=0+<O @n9 e",
"2 Zm@Oddhdddddddd&XdgddddddddgiXOddddggdddddu.&ddddddddduuX@n9 e",
"2 mm@;vvvvvvvvvlg&XvvvvvvvvvjliX&vvvvvvvvvliu.,vvvvvvvdduuX@nn 2",
"2 BB ;vvvvvvvvvvg%ovvvvvvvvvvvlO&vvvvvvvvvvvg.,vvvvvvvjcguo.98 2",
"2 9n@;vvvvvvvvvvg%ovvvvvvvvvvvgX&vvvvvvvbbvvg.,vvvvvvvjvgu% B8 2",
"2 9n@;vvbbLLbbvvjOovvvvvvvvvvvgX&vvvvHKKbbvvd.+vvvvvvvvvjuO.99 2",
". nn@;vvEbEEEbvvgOXvvvvvvvvvvvgX&vvvvJEEbEvvd.,vvvvvvvvvjuX.99 .",
"% 99@;bvvvLLbLvvgOXvvvvvvvvvvvgX&vvJHKLLvvvvg.,vvvvvvvvvluo B9 o",
"2 9n@;vvvvLbLbvvjOovvvvvvvvvvvgX&vvJvKKKvvvvd.,vvvvvvvvvluo#89 2",
"2 9n ;vvvvbvvvvvg%ovvvvvvvvvvvgX;vvvvvHvvvvvp.,vvvvvvvvvluo.VC 2",
"2 99.;vbvvvvvvvvjoovvvvvvvvvbcgX*vvvvvvvvvvvd.,vvvvvvvvvjuo.VC 2",
"2 9n.;vvvvvvvvvvgOovvvvvvvvvvbgXOvvvvvvvvvvvd ,vvvvvvvvvluo.VC 2",
"2 9n.;vvvvvvvvvvgOovvvvvvvvvvvgX;vvvvvvvvvvvd.,vvvvvvvvvjuo@VC 2",
"2 9n.;vvvvvvvvvvl+ovvvvvvvvvvlpX;vvvvvvvvvvvd.;vvvvvvvbvgiX mm 2",
"o 9n@;vvvvvvvjcgg;ovvvvvvvvblgpX*vvvvvvvvvjli.,vvvvvvvgggiX.BC O",
"# 9n@#fkjjjjjjjgw..fkjjjjjjjjgw..fjjjjjjjjjjf.&fjjjjjjjuuq.@m9.X",
"2 9n@ .+++++++++o  .++++++++++.  X+++++O+OO+.  XO++++O+++. @9B 2",
"2 98. .-########################@##@#########.-@#@#######. @n9 2",
"2 8B@.-9mmmmmmBmmmmBmmmmmmBmmmVVBBBBBBBmBBBBBmBBBmBBBBBBn3..n8 r",
"2 9n@@6BVBCCSDCSAAAAAAAAAAAAAAAACFFITTTTTTTTFAAAAAAAAAACn8@@n9.2",
"2 9n@@BCCCCCCCSCAAAAAAAAAAAAAAAACDDFFGFGGYFFDAAAAAAAAAAASn@@n9 2",
"2 9n@@BCCC@-CCCCAAAAAAAAAAAAAAAASCSCGSPDGIGACACAAAAV# CCCn@@n9 2",
"; 9n@#68CC8BCSCDAAAAAAAAAAAAAAAADCCSCCFIGAAACSSCAAACm9CSSn@@n8 ;",
". 9n.-4446BBCCCCAAAAAAAAAAAAAAAACCCCCCSCSCSCSCASAAABB9n6n4@@n9 .",
"2 99 @44468B8B8Bnnnnnnn9nnnnnnnnBnnBnnnn9nnn99nnnnnnnnn684@.n9 2",
"2 99. #--------------------------------------------------@ @n9 2",
"2 99@                                      .               @n8 r",
"2 9n                                                       @n8 e",
"2 9n. X<<,<<<<<<O  X<<<<<<<<<<X  *<<<<<<<<<<X  O<<<<<<<<<% @n8 2",
"2 9n.%ggggggggggpO.ggggggdgggiuXOgpggggpgddgi.OgddddddduuuX@n9 2",
"; nn.;vvvvk2kvvcgOXvcbcbf1lvlduX;vbvvz2fvvvvd.,vvvvk2zhuuuO.n9 ,",
"  58.;bvbck1kglpuOXvvcvvk1zvvvgX&vvvvz1fvduiu.,vvvvj1zvxuu%@86 .",
"2 -4..tggggggggp0..rggggggggggq..tggggggggii< Xtddgdddddu0.@4- 1",
"2                                                              2",
"2                                                              e"
};
