/* XPM */
static char *exit_[] = {
/* columns rows colors chars-per-pixel */
"64 64 61 1 ",
"  c #56505B",
". c #5B535C",
"X c #62565D",
"o c #66585E",
"O c #6D5B5E",
"+ c #735E5F",
"@ c #76605F",
"# c #595661",
"$ c #5B5A65",
"% c #5D5F6A",
"& c #625961",
"* c #6C5D61",
"= c #605E68",
"- c #735E61",
"; c #5E606B",
": c #6D6064",
"> c #64646E",
", c #736365",
"< c #7B6361",
"1 c #776867",
"2 c #7C6866",
"3 c #7C6B69",
"4 c #606671",
"5 c #636B76",
"6 c #696A72",
"7 c #666E79",
"8 c #686E78",
"9 c #69717B",
"0 c #72747B",
"q c #836661",
"w c #876862",
"e c #8C6A62",
"r c #826D6A",
"t c #926E64",
"y c #87736E",
"u c #89746F",
"i c #977064",
"p c #987064",
"a c #9E7769",
"s c #9D7A6C",
"d c #8A7770",
"f c #8C7B73",
"g c #A17C6C",
"h c #8F8077",
"j c #A68371",
"k c #A98673",
"l c #A58875",
"z c #AA8874",
"x c #AE8D78",
"c c #B4957D",
"v c #6E7780",
"b c #6F7881",
"n c #707780",
"m c #737B83",
"M c #768087",
"N c #798087",
"B c #7B838B",
"V c #7F888F",
"C c #7F8990",
"Z c #80898F",
"A c #828B91",
/* pixels */
"uyyyyydyyyyr3*.#        ..X..XXXX..X.&XX.&X.&.  . .@O+o O@+qwrdd",
"uyyuyyyyyy,&.#666666666666666668080000068666666666;  oOXO+++<<rd",
",-,---,-,-$9m05555666658686558680890990898686867770mm=& XOOO----",
".......  .m8;$                                    ;;;M> .... ..#",
"rrrrrw-.6n.Xoe+<eeee@.XweX...                        .5m&*rrrrrr",
"uyyyr*=6%$<tpp+qiiiii@wiiwtOeX                         ;=8*yyyud",
"yyyur.6n#ogtep<qktwip@wteieOt.                          5n.2uyuu",
"uyyy,#B%.tc,.p+qz@.ii@wq weO+                           #n6&uuuu",
"yyy3.m5  ecsei,qxieii@wteieOtoX                          =m=-yyd",
"y1:, B; .eccsi@qxiiii@wiipeOp@@                          $m=*yyd",
"<11,.M;..iccap@qxppii@wiiie@pt@                          #n4&-11",
"..  68 3,eccap@qxipii@wippeOiiq                           %m. ..",
"rrr 68 y1tccpi@qxippi@wippeOpp@                           %m -3r",
"udu 68 31tccai@qxiiii@wpipe@ppq                           %m ,yd",
"ddf 68 31tcxpp@wkpiii@wpppeOp2<                           %n#,yd",
"ddd 68 y1tcxkp@qjgiii@wpppeOpw@                           %n#-yd",
"uyy 68 3,tpppiO<iiipiO<pii@*iX                            %m ,yd",
"uyy 68.X.*+O+o  O@OOo  O**. X.                            %m -yd",
"rr2 67 .. ## ########..$####.                             %m *rr",
".   67 >>4MMM5555555555555555;.                           %m # .",
"21, 68.5>5AAv98555555555555555;                           %n *12",
"yyy 68.6>5AACb9555555555555555;                          #%m -yd",
"yyy 68 5>5m BB5555555555555; 4;                           %m#1yu",
"uyy.69 6>5M;VB55555555555554;5;                           %n -yu",
"udy 68 665AAVm755555555555555;;                           %m 1yd",
"u<* 09 6>4AAm9975555555555555;;                           %m -yd",
"rr2 09.##%;;;%%%;;;;;;;;;;;$..                            %m#-rr",
"... 99     .                                              %n ...",
"---.0v                                                    %m &-1",
"dff n9 *X-q@@+ .,,<<@  @<<  OX                            %m -yd",
"ddf 09.,,tgjag+qiiiip@qpiit*poo                           %n#,yd",
"ydd.08 r,tckpg@wjiiip@wiipe*pOo                           %b#-yu",
"yyy 09 y1tcckp@qxpppp+wiiieOiq@                           %m -yy",
"yyy 59 31tccap@qxpppp+wpiie+iiq                           %m -yy",
"yyy 88 31eccpp@wxpppp+wpiieOiiq                           %n *ry",
"X.X 68 y1iccap@qxpppp+wppie+iiq                           %n .&#",
"OOO 68 31tccpp<qxpppp+eippt+ppq                           %m &**",
"yyy 68 31tccap@wxpppp+wiipeOip@                          .%m -ry",
"yyy 68 y1eccpp@qxipii+wiiieOii@                           %Z.1uu",
"uyy 79 31tccap@qxpipi+wiiie+iiq                           %Z -uu",
"uyu 68 31tccpp@wxppip+eiipt+tiq                           %A#,yd",
"y3, 69 31tcjpp@qxiipp+wiipeOii@                           >A -yd",
"yr< 59 y1ekkkp<qjgpip+wipieOpqq                           %m.-yd",
"Ooo 69 31taxpp<qkpppp+wippe+i+q                           %Z X&&",
"ooo 68 3,eiptto+tpppiO+itp<Xe&$                           >m #&*",
"yyr 68 ..XXXXX .XXXX.  XX&  .#                            >m -yy",
"ufh 88 ..$$$$$=$$$$$$$.$$$$###                            %m#1yu",
"fdh 68 5>4VVmm995555555655544$%                           %n -yd",
"uyu 69 6>6ZAm095555555555554;;;                           %m ,dd",
"uyy 68 8>5ZBZV9555555555555545;                           %m -yy",
"uyy 68 8>5m BB5555555555555; 4;                           %m 1yd",
"*O@ 68 6>6B5VB7555555555555545;                           %n &*-",
"X.X 65 6;5CBCM9555555555555555;                           %m .#&",
"yrr 68 645VMBM555555555555555%%                           %m -yr",
"yyy 68 $.;;;;;;;%%%%;%$=;;;;%                             %m#1yy",
"uyy.68               #                                    %n -yd",
"ddy 69          .  .                                      %m 1yd",
"y33 68 Ooqeee@.Xwewe-.XeeeX.+oX                           %m -yy",
"d2, 69 3,tllpp@wgpiip+eiiie+pe-                           %m#1yd",
",@@ 68 31tl&tp@wzqoip+wwXee++Oq                           %m *--",
".   ;5 31tl@ip@ege-ip+weqee+w*q                           $v ...",
"yrr ;; :*wite@.Xweeeq.XwweX.-X.                           $; *rr",
"ufh                                                         #,yu",
"dfho:.oX;.&&&.oX&&&& .X ...o&&&&&&&&&&&X&&&X&&&&&&&&&.# .. &&1ud"
};
