/* XPM */
static char *floor2[] = {
/* columns rows colors chars-per-pixel */
"64 64 25 1 ",
"  c #56505B",
". c #5A525C",
"X c #63565D",
"o c #68575E",
"O c #67585E",
"+ c #6C595F",
"@ c #735B5F",
"# c #675B60",
"$ c #6E5D61",
"% c #755D60",
"& c #785F61",
"* c #6E6164",
"= c #746163",
"- c #7B6465",
"; c #7D6867",
": c #7C6A69",
"> c #806967",
", c #826C69",
"< c #87736E",
"1 c #88746F",
"2 c #8A7770",
"3 c #8C7B73",
"4 c #8F8077",
"5 c #908077",
"6 c #908178",
/* pixels */
"1<<<<<<<1<<<<;=:@=--=+X.@---,<<<<<<1<1<<<<<<1:;--==:%@o +%--,,<<",
"1<<1<<1<1<1<1111<<,;-@@ @&@@-;,<1<<<<<1<<<<<<1<<1<,,-&%X+%@@->,1",
"=%====%==%==%=======+@X o@@@@@=%=%=========%========@++ X++@@@@-",
".......  . ......................... ..  ....... ...............",
",,,,,>&o.@,,,,,<,<:,,,,,,,<,,,,<,,,,,,-@.+-,,,,<,,,<,,<,,,,,,,,<",
"11<<<,>+X@-:,1<<<<<<11243333<<<<11<<,,,@ @&;,<<1<<<<<<223433<<<1",
"11<<<1;+.XO$:*=1<1<<<1122332<<<<<<<<<<<@.XX*-*-:<<<<<<12323311<1",
"1<<<,$=+.@X-<,<1<<1<1<<<<2222<<1<1<<<-@-.o++<:<<<<<1<<<112221111",
"1<<<:=@XX@+-,<<<<<<<<11<<<<1<<<1<<<<<-$O.@@=,<<<<<<<<<<<11<<<<<1",
"1=$;ooOXX@--><<<<<1<<<<1<1<1<1<11;-=++OO.@&&;,<11<1<1<1<<<111<11",
"----=%@X.+@@=-----------------------&&@+ o@@%-------------------",
"    .. . ..... . . . .     .   .          ...  .  . .  .   .. . ",
",;,;:>,;>;>;>>>>;;:;>@+ +->,>,;>:,,:,>,,,:,>,>;,>;>>>-@.o&;;:;>,",
"23331<<1111<<<11<<<,>&@ &>,<<<1<<3232<<<<<<<<<<<111,>-@.+-,<1111",
"21331<<<11<<<<<1<<-oOoX.@-<<1<1<<2342<<<<<<<<1<<<1==OOX +@>11<11",
"213311<<<<<<1<<<<1<<-%@.@+=<<<<<<2322<<<<<<1<<<1<<11,+-X@@o<<<11",
"11<<1<<1<<<<<<<<<<<,=+@.&+-,<<<<1<11<<<<<<<11111<<<<;o@.+@o,<<<<",
"1111<<<<<<<<<-*-oX$=oXX.@@>><<<<<<<1<<111<111:==+OX-oOo.+&>>,<<1",
">>>>>;;>>,,;,;>,;;,>&%O.@@->>>>>;;>>>>>>;;,;;;;;>>::;@= O@-->,,,",
". . .. .   . ..  .  ..   ...  .. . . ... . . .. .  ..   ..  .  .",
"------@X @--------------;-------------@+ o--=-------------;-----",
"1<1,:>@+X&-;,<1<<1<1<1132322<<1<11<<,;-@.@%;<:11111<<<112322<<<1",
"11<<<;-+.O+$:::1<<<<<1233352<<<<<<<<1;>@.Oo+:-;<<<<<<<13333311<1",
"1<<<<=@@.+O=:;;<<<<1<1<<12322<1<<<<<1;=@.O@+;-,<1<1<<<1<133311<1",
"111<,+=o.&X;<<<<<<<<<1<1<1<<<<<<<111<=$@.@+$<<<<1<11<<11<<<<1<<1",
"<-$-OoX.X@&,,<<<<<<<<<<<<<<1<<<<1=-=OOO. @@>>,<1<<<1<<<11<11<<11",
",,:,,&@o.@@-&,,<,<<:,,,,,<,,,,,,<,>,>--@.+@@->,,,,,,,,,,,,,,,,,<",
".......  ....... ............... ....... .......................",
"==%=====%======%==$==+o o+@@@+@@@@@@+@@=*===%==*===%=%o..@======",
"1343<<1<<<1<<<<<<<<:-@O.@@@-@@@@@@@@@--<1<1<<11<1<<::%+.+@;,,1<1",
"125321<<<<<<<<<<<,;=O+O.&@@@+XX.X...X@<<<<<1<<<<<<-=$o@.+@%<<<<1",
"1122111<<11<<<<<<<<<O+@.@O+@oX.     .@,<<<<<<<1<1111-X@.@@X<1<11",
"1<11<<<<<<<1,:=:##*-OO. @&&@OX.     X@@,<<<<<:-=*$#:$XX +&,,,<<<",
"1<<11<<1<<121<,,,,,,;%@.@&@@+++++o+@+@@,<1<<<<<,,,:<,&@.+%@%,,<<",
"<,<,<,,<,<<,<,<<<<,-@&$.&@@&&%%%@@@@@@--,,<<<,<<<<,,&&%.+%%@&&,<",
"XX.XXX.XO.XX.X.X.XX.XX  XoX.XXX.XXXXXXXXX.XXXXX..X.X.X.  XXXX.XX",
"++#++++. O++#+#+++++++++o++++++O++++++oX .++O+++++++++O+O+++++++",
"1<<<,>-+.&,<1111<<11<111<<11<111<<<1,>>@.@;,1<<<<1<1<1<<11<<<<11",
"1<<<<1,+.@=;,,<<<1<<<12444521<<<1<<<<<<@.+=-:<<<<<<<<13444441<<1",
"1<<<<<-+ OOO:$-<<<<<1<<<<24311<<1<<<<<<@..oO=$;,<<1<<<<<12431111",
"1<<<:.=+.&.;<<1<<<<<<<<<<<<<1<<<<1<<,$o%.@+O<<<<<<<<<<<<<<<<<1<1",
"1:=:**O.X%->,<<<1<<<<<<<<<<<<<<<<:;;*=$. @--,<<<<<<<<<<<<<<<<<<1",
"1,;,-%%+.%%@-,<<<<<<<<<<<<<,<<<<<,:<--@%.@%%-:<<<<<<<<<<<<<<<<<1",
"OO+OXOO. XOO++OOOOOOOOOOOo+OOOoOoOOoOOO. .ooXooOOOOOOOo+OOOOOOO+",
"O+oXXXXoOO.OXOOOOXXOOO. XOXOXXooXXXoXOXXoXXXoXXoOOXOOO.. OOOXOXO",
"<,<<<<<<<<11,<<,<<<<-%@.@-,<<<<<<<<1<<<<<<<<<<<<<<<,,&&.+&,,<<<<",
"22412<<<<<1<1111<,:==+O %,,<<<<<133311<1<<<1<<1<<1:-=*o.+-,<1<<1",
"42441<<<<<<<<1111,:--&o %-,1<<<112343<<<<<<<<<<<<<;:-%@.+&;<<<<1",
"11111<<1<<<<<2<<111:#$@.@o=<<<<<<111<<<<<<<1<<<<<1<<-.&.$@X<<<<1",
"<<1,<<<<<<1<<:::==::*Oo.%%-<1<<<<<<<<<<<<<<<<<:::==:=++.+@-><<<1",
"11111<<,1<11<,;:--;:=@+ &&-;,<<<<1<<<<<<1<1<<,,;--::&@@.+%--,<<1",
"=$$@$@@@$$$$$$$=+=+@++X o++++=+@$$+=+=@@$$$$$$+=$$$*@+o .+@$$$$=",
"..X..XX .....X.XX.X..X....X.X.X...X.X.X.  ....X...X..XX..X.X.X.X",
"<,<,>-@+.&,;,,<,,<<,,,<<<<,<<,<<<<<,,>@@.@,,,,,<<<,<<,<,,<,<<,,<",
"21<<,>&+X&&,<<1<<<<<<2243533<<<<<<<<,,>@ @@><<<<<<<<<<244442<<11",
"<<<<<>>+ XXX:$-1<1<<<<112332<<<<<<<<<,,& XXX*$;,<<<1<<11224211<2",
"1<<1,X@+.%X-<,<<<<<<<1<111212<<<<<<<<*O%.@+$<<<<<1<<<1<<<12212<1",
"<<:,-=@.X%@;,<<1<<<1<<<<<1<<<<<<<,<,-=*O @@%,<<<<<<<<<<<<1<<<<11",
"1:=:$#+o.%&--<<1<<<1<<1<1<<1<<<<<:;;=$++ @@--><<1<<<1<<<1<<<1<<1",
"===&==@..+@@@=====-%======%==-==&====%@O X@@==%=========&&=====-",
".................... .   ..............................  ... ...",
",,,,,,,,,,,,,,,,,:,,,-+ @-:,,,,,,,,,,,,,,,,,,,,,,,,,,;@.O%,,,,,,",
"1264<<<<<<<<<<<<<<:$Ooo %%,,<<<<134311<<<<<<<<<<<<:=OoX.+@-<<111",
"14444221121121221<<,+@%.&O-22111114443112<22122111<,-O&X@@O<1112"
};
