/* XPM */
static char *floor_2[] = {
/* columns rows colors chars-per-pixel */
"64 64 123 2 ",
"   c #66575D",
".  c #64565E",
"X  c #65575E",
"o  c #66575E",
"O  c #67575E",
"+  c #68575E",
"@  c #66585E",
"#  c #67585E",
"$  c #67585F",
"%  c #67595F",
"&  c #68585E",
"*  c #69585E",
"=  c #69595E",
"-  c #68595F",
";  c #6B595F",
":  c #695A5F",
">  c #6A5A5F",
",  c #6B5A5F",
"<  c #6C595F",
"1  c #6C5A5F",
"2  c #6E5A5F",
"3  c #705B5F",
"4  c #725B5F",
"5  c #6B5A60",
"6  c #6B5B60",
"7  c #6C5B60",
"8  c #6D5B60",
"9  c #6E5B60",
"0  c #6C5C60",
"q  c #6E5C60",
"w  c #6E5D61",
"e  c #705C60",
"r  c #715C60",
"t  c #705E61",
"y  c #715E61",
"u  c #725E61",
"i  c #715E62",
"p  c #736062",
"a  c #736063",
"s  c #726163",
"d  c #746062",
"f  c #756062",
"g  c #756163",
"h  c #766263",
"j  c #776263",
"k  c #736164",
"l  c #726264",
"z  c #736264",
"x  c #756364",
"c  c #756365",
"v  c #776364",
"b  c #756465",
"n  c #766465",
"m  c #776465",
"M  c #766566",
"N  c #776566",
"B  c #776666",
"V  c #776667",
"C  c #796364",
"Z  c #786465",
"A  c #7A6565",
"S  c #7B6565",
"D  c #786666",
"F  c #786667",
"G  c #786767",
"H  c #796767",
"J  c #7B6666",
"K  c #7A6767",
"L  c #7D6666",
"P  c #7A6867",
"I  c #7B6867",
"U  c #7E6867",
"Y  c #796868",
"T  c #7A6868",
"R  c #7B6968",
"E  c #7B6969",
"W  c #7B6A69",
"Q  c #7C6968",
"!  c #7C6A69",
"~  c #7D6A69",
"^  c #7C6B69",
"/  c #7D6B69",
"(  c #7E6A68",
")  c #7E6A69",
"_  c #7E6B69",
"`  c #7F6B69",
"'  c #7F6C69",
"]  c #7D6C6A",
"[  c #7D6D6B",
"{  c #7E6C6A",
"}  c #7F6C6A",
"|  c #7E6D6B",
" . c #7F6E6B",
".. c #7F6E6C",
"X. c #806C69",
"o. c #816C69",
"O. c #806C6A",
"+. c #806D6A",
"@. c #816D6A",
"#. c #816D6B",
"$. c #826D6A",
"%. c #816E6B",
"&. c #826E6B",
"*. c #836E6B",
"=. c #836F6B",
"-. c #816F6C",
";. c #836F6C",
":. c #846F6C",
">. c #81706C",
",. c #83716D",
"<. c #84706C",
"1. c #85706C",
"2. c #85716C",
"3. c #85716D",
"4. c #86716D",
"5. c #86726D",
"6. c #87726D",
"7. c #85726E",
"8. c #87736E",
"9. c #87746F",
"0. c #88746F",
"q. c #88756F",
"w. c #897670",
/* pixels */
"V V V V B B B B B B B B b b b b s s s s o o o o 2 2 2 2 x x x x B B B B B B B B B B B B b b b b k k k k & & & & < < < < x x x x ",
"V V V V B B B B B B B B b b b b s s s s o o o o 2 2 2 2 x x x x B B B B B B B B B B B B b b b b k k k k & & & & < < < < x x x x ",
"V V V V B B B B B B B B b b b b s s s s o o o o 2 2 2 2 x x x x B B B B B B B B B B B B b b b b k k k k & & & & < < < < x x x x ",
"V V V V B B B B B B B B b b b b s s s s o o o o 2 2 2 2 x x x x B B B B B B B B B B B B b b b b k k k k & & & & < < < < x x x x ",
"5.5.5.5.A A A A w w w w *.*.*.*.5.5.5.5.8.8.8.8.w.w.w.w.5.5.5.5.5.5.5.5.U U U U , , , , $.$.$.$.5.5.5.5.8.8.8.8.w.w.w.w.6.6.6.6.",
"5.5.5.5.A A A A w w w w *.*.*.*.5.5.5.5.8.8.8.8.w.w.w.w.5.5.5.5.5.5.5.5.U U U U , , , , $.$.$.$.5.5.5.5.8.8.8.8.w.w.w.w.6.6.6.6.",
"5.5.5.5.A A A A w w w w *.*.*.*.5.5.5.5.8.8.8.8.w.w.w.w.5.5.5.5.5.5.5.5.U U U U , , , , $.$.$.$.5.5.5.5.8.8.8.8.w.w.w.w.6.6.6.6.",
"5.5.5.5.A A A A w w w w *.*.*.*.5.5.5.5.8.8.8.8.w.w.w.w.5.5.5.5.5.5.5.5.U U U U , , , , $.$.$.$.5.5.5.5.8.8.8.8.w.w.w.w.6.6.6.6.",
"b b b b - - - - = = = = B B B B G G G G G G G G G G G G G G G G b b b b 5 5 5 5 O O O O N N N N G G G G G G G G G G G G H H H H ",
"b b b b - - - - = = = = B B B B G G G G G G G G G G G G G G G G b b b b 5 5 5 5 O O O O N N N N G G G G G G G G G G G G H H H H ",
"b b b b - - - - = = = = B B B B G G G G G G G G G G G G G G G G b b b b 5 5 5 5 O O O O N N N N G G G G G G G G G G G G H H H H ",
"b b b b - - - - = = = = B B B B G G G G G G G G G G G G G G G G b b b b 5 5 5 5 O O O O N N N N G G G G G G G G G G G G H H H H ",
"q.q.q.q.4.4.4.4.2.2.2.2.2.2.2.2.$.$.$.$., , , , L L L L 2.2.2.2.0.0.0.0.4.4.4.4.2.2.2.2.2.2.2.2.*.*.*.*.w w w w C C C C 4.4.4.4.",
"q.q.q.q.4.4.4.4.2.2.2.2.2.2.2.2.$.$.$.$., , , , L L L L 2.2.2.2.0.0.0.0.4.4.4.4.2.2.2.2.2.2.2.2.*.*.*.*.w w w w C C C C 4.4.4.4.",
"q.q.q.q.4.4.4.4.2.2.2.2.2.2.2.2.$.$.$.$., , , , L L L L 2.2.2.2.0.0.0.0.4.4.4.4.2.2.2.2.2.2.2.2.*.*.*.*.w w w w C C C C 4.4.4.4.",
"q.q.q.q.4.4.4.4.2.2.2.2.2.2.2.2.$.$.$.$., , , , L L L L 2.2.2.2.0.0.0.0.4.4.4.4.2.2.2.2.2.2.2.2.*.*.*.*.w w w w C C C C 4.4.4.4.",
"T T T T T T T T T T T T M M M M l l l l . . . . y y y y Y Y Y Y T T T T T T T T T T T T M M M M z z z z @ @ @ @ q q q q T T T T ",
"T T T T T T T T T T T T M M M M l l l l . . . . y y y y Y Y Y Y T T T T T T T T T T T T M M M M z z z z @ @ @ @ q q q q T T T T ",
"T T T T T T T T T T T T M M M M l l l l . . . . y y y y Y Y Y Y T T T T T T T T T T T T M M M M z z z z @ @ @ @ q q q q T T T T ",
"T T T T T T T T T T T T M M M M l l l l . . . . y y y y Y Y Y Y T T T T T T T T T T T T M M M M z z z z @ @ @ @ q q q q T T T T ",
":.:.:.:.j j j j 8 8 8 8 X.X.X.X.:.:.:.:.3.3.3.3.9.9.9.9.<.<.<.<.:.:.:.:.S S S S > > > > ` ` ` ` :.:.:.:.1.1.1.1.9.9.9.9.1.1.1.1.",
":.:.:.:.j j j j 8 8 8 8 X.X.X.X.:.:.:.:.3.3.3.3.9.9.9.9.<.<.<.<.:.:.:.:.S S S S > > > > ` ` ` ` :.:.:.:.1.1.1.1.9.9.9.9.1.1.1.1.",
":.:.:.:.j j j j 8 8 8 8 X.X.X.X.:.:.:.:.3.3.3.3.9.9.9.9.<.<.<.<.:.:.:.:.S S S S > > > > ` ` ` ` :.:.:.:.1.1.1.1.9.9.9.9.1.1.1.1.",
":.:.:.:.j j j j 8 8 8 8 X.X.X.X.:.:.:.:.3.3.3.3.9.9.9.9.<.<.<.<.:.:.:.:.S S S S > > > > ` ` ` ` :.:.:.:.1.1.1.1.9.9.9.9.1.1.1.1.",
"V V V V : : : : > > > > P P P P R R R R R R R R R R R R R R R R F F F F 0 0 0 0 # # # # K K K K R R R R R R R R R R R R W W W W ",
"V V V V : : : : > > > > P P P P R R R R R R R R R R R R R R R R F F F F 0 0 0 0 # # # # K K K K R R R R R R R R R R R R W W W W ",
"V V V V : : : : > > > > P P P P R R R R R R R R R R R R R R R R F F F F 0 0 0 0 # # # # K K K K R R R R R R R R R R R R W W W W ",
"V V V V : : : : > > > > P P P P R R R R R R R R R R R R R R R R F F F F 0 0 0 0 # # # # K K K K R R R R R R R R R R R R W W W W ",
"7.7.7.7.=.=.=.=.&.&.&.&.&.&.&.&.` ` ` ` & & & & 4 4 4 4 * * * *         v v v v &.&.&.&.&.&.&.&.O.O.O.O., , , , d d d d =.=.=.=.",
"7.7.7.7.=.=.=.=.&.&.&.&.&.&.&.&.` ` ` ` & & & & 4 4 4 4 * * * *         v v v v &.&.&.&.&.&.&.&.O.O.O.O., , , , d d d d =.=.=.=.",
"7.7.7.7.=.=.=.=.&.&.&.&.&.&.&.&.` ` ` ` & & & & 4 4 4 4 * * * *         v v v v &.&.&.&.&.&.&.&.O.O.O.O., , , , d d d d =.=.=.=.",
"7.7.7.7.=.=.=.=.&.&.&.&.&.&.&.&.` ` ` ` & & & & 4 4 4 4 * * * *         v v v v &.&.&.&.&.&.&.&.O.O.O.O., , , , d d d d =.=.=.=.",
"/ / / / / / / / / / / / P P P P c c c c o o o o 3 3 3 3 + + + +         r r r r ~ ~ ~ ~ P P P P n n n n & & & & e e e e K K K K ",
"/ / / / / / / / / / / / P P P P c c c c o o o o 3 3 3 3 + + + +         r r r r ~ ~ ~ ~ P P P P n n n n & & & & e e e e K K K K ",
"/ / / / / / / / / / / / P P P P c c c c o o o o 3 3 3 3 + + + +         r r r r ~ ~ ~ ~ P P P P n n n n & & & & e e e e K K K K ",
"/ / / / / / / / / / / / P P P P c c c c o o o o 3 3 3 3 + + + +         r r r r ~ ~ ~ ~ P P P P n n n n & & & & e e e e K K K K ",
"+.+.+.+.m m m m 7 7 7 7 Q Q Q Q +.+.+.+.%.%.%.%.,.,.,.,.+.+.+.+.+.+.+.+.J J J J : : : : R R R R +.+.+.+.%.%.%.%.,.,.,.,.#.#.#.#.",
"+.+.+.+.m m m m 7 7 7 7 Q Q Q Q +.+.+.+.%.%.%.%.,.,.,.,.+.+.+.+.+.+.+.+.J J J J : : : : R R R R +.+.+.+.%.%.%.%.,.,.,.,.#.#.#.#.",
"+.+.+.+.m m m m 7 7 7 7 Q Q Q Q +.+.+.+.%.%.%.%.,.,.,.,.+.+.+.+.+.+.+.+.J J J J : : : : R R R R +.+.+.+.%.%.%.%.,.,.,.,.#.#.#.#.",
"+.+.+.+.m m m m 7 7 7 7 Q Q Q Q +.+.+.+.%.%.%.%.,.,.,.,.+.+.+.+.+.+.+.+.J J J J : : : : R R R R +.+.+.+.%.%.%.%.,.,.,.,.#.#.#.#.",
"R R R R 6 6 6 6 1 1 1 1 _ _ _ _ } } } } } } } } } } } } } } } } Q Q Q Q w w w w * * * * ( ( ( ( } } } } } } } } } } } } } } } } ",
"R R R R 6 6 6 6 1 1 1 1 _ _ _ _ } } } } } } } } } } } } } } } } Q Q Q Q w w w w * * * * ( ( ( ( } } } } } } } } } } } } } } } } ",
"R R R R 6 6 6 6 1 1 1 1 _ _ _ _ } } } } } } } } } } } } } } } } Q Q Q Q w w w w * * * * ( ( ( ( } } } } } } } } } } } } } } } } ",
"R R R R 6 6 6 6 1 1 1 1 _ _ _ _ } } } } } } } } } } } } } } } } Q Q Q Q w w w w * * * * ( ( ( ( } } } } } } } } } } } } } } } } ",
">.>.>.>.} } } } { { { { { { { { I I I I - - - - Z Z Z Z { { { { -.-.-.-.} } } } { { { { { { { { Q Q Q Q 6 6 6 6 g g g g } } } } ",
">.>.>.>.} } } } { { { { { { { { I I I I - - - - Z Z Z Z { { { { -.-.-.-.} } } } { { { { { { { { Q Q Q Q 6 6 6 6 g g g g } } } } ",
">.>.>.>.} } } } { { { { { { { { I I I I - - - - Z Z Z Z { { { { -.-.-.-.} } } } { { { { { { { { Q Q Q Q 6 6 6 6 g g g g } } } } ",
">.>.>.>.} } } } { { { { { { { { I I I I - - - - Z Z Z Z { { { { -.-.-.-.} } } } { { { { { { { { Q Q Q Q 6 6 6 6 g g g g } } } } ",
"&.&.&.&.%.%.%.%.#.#.#.#.) ) ) ) K K K K # # # # f f f f #.#.#.#.%.%.%.%.%.%.%.%.#.#.#.#._ _ _ _ P P P P > > > > u u u u #.#.#.#.",
"&.&.&.&.%.%.%.%.#.#.#.#.) ) ) ) K K K K # # # # f f f f #.#.#.#.%.%.%.%.%.%.%.%.#.#.#.#._ _ _ _ P P P P > > > > u u u u #.#.#.#.",
"&.&.&.&.%.%.%.%.#.#.#.#.) ) ) ) K K K K # # # # f f f f #.#.#.#.%.%.%.%.%.%.%.%.#.#.#.#._ _ _ _ P P P P > > > > u u u u #.#.#.#.",
"&.&.&.&.%.%.%.%.#.#.#.#.) ) ) ) K K K K # # # # f f f f #.#.#.#.%.%.%.%.%.%.%.%.#.#.#.#._ _ _ _ P P P P > > > > u u u u #.#.#.#.",
"! ! ! ! p p p p : : : : H H H H ! ! ! ! ] ] ] ]  . . . .! ! ! ! ! ! ! ! h h h h $ $ $ $ D D D D ! ! ! ! / / / / ......../ / / / ",
"! ! ! ! p p p p : : : : H H H H ! ! ! ! ] ] ] ]  . . . .! ! ! ! ! ! ! ! h h h h $ $ $ $ D D D D ! ! ! ! / / / / ......../ / / / ",
"! ! ! ! p p p p : : : : H H H H ! ! ! ! ] ] ] ]  . . . .! ! ! ! ! ! ! ! h h h h $ $ $ $ D D D D ! ! ! ! / / / / ......../ / / / ",
"! ! ! ! p p p p : : : : H H H H ! ! ! ! ] ] ] ]  . . . .! ! ! ! ! ! ! ! h h h h $ $ $ $ D D D D ! ! ! ! / / / / ......../ / / / ",
"' ' ' ' q q q q 9 9 9 9 @.@.@.@.=.=.=.=.=.=.=.=.;.;.;.;.=.=.=.=.' ' ' ' i i i i ; ; ; ; o.o.o.o.=.=.=.=.=.=.=.=.;.;.;.;.;.;.;.;.",
"' ' ' ' q q q q 9 9 9 9 @.@.@.@.=.=.=.=.=.=.=.=.;.;.;.;.=.=.=.=.' ' ' ' i i i i ; ; ; ; o.o.o.o.=.=.=.=.=.=.=.=.;.;.;.;.;.;.;.;.",
"' ' ' ' q q q q 9 9 9 9 @.@.@.@.=.=.=.=.=.=.=.=.;.;.;.;.=.=.=.=.' ' ' ' i i i i ; ; ; ; o.o.o.o.=.=.=.=.=.=.=.=.;.;.;.;.;.;.;.;.",
"' ' ' ' q q q q 9 9 9 9 @.@.@.@.=.=.=.=.=.=.=.=.;.;.;.;.=.=.=.=.' ' ' ' i i i i ; ; ; ; o.o.o.o.=.=.=.=.=.=.=.=.;.;.;.;.;.;.;.;.",
"| | | | ^ ^ ^ ^ E E E E E E E E F F F F X X X X a a a a E E E E [ [ [ [ ^ ^ ^ ^ E E E E E E E E G G G G % % % % t t t t W W W W ",
"| | | | ^ ^ ^ ^ E E E E E E E E F F F F X X X X a a a a E E E E [ [ [ [ ^ ^ ^ ^ E E E E E E E E G G G G % % % % t t t t W W W W ",
"| | | | ^ ^ ^ ^ E E E E E E E E F F F F X X X X a a a a E E E E [ [ [ [ ^ ^ ^ ^ E E E E E E E E G G G G % % % % t t t t W W W W ",
"| | | | ^ ^ ^ ^ E E E E E E E E F F F F X X X X a a a a E E E E [ [ [ [ ^ ^ ^ ^ E E E E E E E E G G G G % % % % t t t t W W W W "
};
