/* XPM */
static char *floorc[] = {
/* columns rows colors chars-per-pixel */
"16 16 123 2 ",
"   c #66575D",
".  c #64565E",
"X  c #65575E",
"o  c #66575E",
"O  c #67575E",
"+  c #68575E",
"@  c #66585E",
"#  c #67585E",
"$  c #67585F",
"%  c #67595F",
"&  c #68585E",
"*  c #69585E",
"=  c #69595E",
"-  c #68595F",
";  c #6B595F",
":  c #695A5F",
">  c #6A5A5F",
",  c #6B5A5F",
"<  c #6C595F",
"1  c #6C5A5F",
"2  c #6E5A5F",
"3  c #705B5F",
"4  c #725B5F",
"5  c #6B5A60",
"6  c #6B5B60",
"7  c #6C5B60",
"8  c #6D5B60",
"9  c #6E5B60",
"0  c #6C5C60",
"q  c #6E5C60",
"w  c #6E5D61",
"e  c #705C60",
"r  c #715C60",
"t  c #705E61",
"y  c #715E61",
"u  c #725E61",
"i  c #715E62",
"p  c #736062",
"a  c #736063",
"s  c #726163",
"d  c #746062",
"f  c #756062",
"g  c #756163",
"h  c #766263",
"j  c #776263",
"k  c #736164",
"l  c #726264",
"z  c #736264",
"x  c #756364",
"c  c #756365",
"v  c #776364",
"b  c #756465",
"n  c #766465",
"m  c #776465",
"M  c #766566",
"N  c #776566",
"B  c #776666",
"V  c #776667",
"C  c #796364",
"Z  c #786465",
"A  c #7A6565",
"S  c #7B6565",
"D  c #786666",
"F  c #786667",
"G  c #786767",
"H  c #796767",
"J  c #7B6666",
"K  c #7A6767",
"L  c #7D6666",
"P  c #7A6867",
"I  c #7B6867",
"U  c #7E6867",
"Y  c #796868",
"T  c #7A6868",
"R  c #7B6968",
"E  c #7B6969",
"W  c #7B6A69",
"Q  c #7C6968",
"!  c #7C6A69",
"~  c #7D6A69",
"^  c #7C6B69",
"/  c #7D6B69",
"(  c #7E6A68",
")  c #7E6A69",
"_  c #7E6B69",
"`  c #7F6B69",
"'  c #7F6C69",
"]  c #7D6C6A",
"[  c #7D6D6B",
"{  c #7E6C6A",
"}  c #7F6C6A",
"|  c #7E6D6B",
" . c #7F6E6B",
".. c #7F6E6C",
"X. c #806C69",
"o. c #816C69",
"O. c #806C6A",
"+. c #806D6A",
"@. c #816D6A",
"#. c #816D6B",
"$. c #826D6A",
"%. c #816E6B",
"&. c #826E6B",
"*. c #836E6B",
"=. c #836F6B",
"-. c #816F6C",
";. c #836F6C",
":. c #846F6C",
">. c #81706C",
",. c #83716D",
"<. c #84706C",
"1. c #85706C",
"2. c #85716C",
"3. c #85716D",
"4. c #86716D",
"5. c #86726D",
"6. c #87726D",
"7. c #85726E",
"8. c #87736E",
"9. c #87746F",
"0. c #88746F",
"q. c #88756F",
"w. c #897670",
/* pixels */
"V B B b s o 2 x B B B b k & < x ",
"5.A w *.5.8.w.5.5.U , $.5.8.w.6.",
"b - = B G G G G b 5 O N G G G H ",
"q.4.2.2.$., L 2.0.4.2.2.*.w C 4.",
"T T T M l . y Y T T T M z @ q T ",
":.j 8 X.:.3.9.<.:.S > ` :.1.9.1.",
"V : > P R R R R F 0 # K R R R W ",
"7.=.&.&.` & 4 *   v &.&.O., d =.",
"/ / / P c o 3 +   r ~ P n & e K ",
"+.m 7 Q +.%.,.+.+.J : R +.%.,.#.",
"R 6 1 _ } } } } Q w * ( } } } } ",
">.} { { I - Z { -.} { { Q 6 g } ",
"&.%.#.) K # f #.%.%.#._ P > u #.",
"! p : H ! ]  .! ! h $ D ! / ../ ",
"' q 9 @.=.=.;.=.' i ; o.=.=.;.;.",
"| ^ E E F X a E [ ^ E E G % t W "
};
