/* XPM */
static char *rescaled_3[] = {
/* columns rows colors chars-per-pixel */
"64 64 109 2 ",
"   c #323443",
".  c #373846",
"X  c #393947",
"o  c #363848",
"O  c #3C3C4C",
"+  c #3D3F51",
"@  c #443A45",
"#  c #413E4A",
"$  c #3E4052",
"%  c #45424D",
"&  c #4A454F",
"*  c #52444C",
"=  c #424354",
"-  c #4B4551",
";  c #44475A",
":  c #46495D",
">  c #484B5F",
",  c #524B54",
"<  c #5A4D55",
"1  c #504D5C",
"2  c #5D5156",
"3  c #56505B",
"4  c #5A525B",
"5  c #7A4D4C",
"6  c #64565D",
"7  c #68575D",
"8  c #67585E",
"9  c #6C595F",
"0  c #735B5F",
"q  c #4A4D61",
"w  c #4D5064",
"e  c #4F5268",
"r  c #52566C",
"t  c #565A6D",
"y  c #595F6E",
"u  c #565970",
"i  c #595C74",
"p  c #675B60",
"a  c #6D5D61",
"s  c #755D60",
"d  c #785F61",
"f  c #5A606E",
"g  c #5E617B",
"h  c #6D6163",
"j  c #6E686D",
"k  c #746163",
"l  c #7B6565",
"z  c #7D6867",
"x  c #7C6A69",
"c  c #61657F",
"v  c #7D7175",
"b  c #8D534E",
"n  c #806967",
"m  c #826C69",
"M  c #87736E",
"N  c #88746F",
"B  c #837173",
"V  c #8A7770",
"C  c #8C7B73",
"Z  c #8E7C7B",
"A  c #907E7C",
"S  c #A5776D",
"D  c #8F8077",
"F  c #908077",
"G  c #928178",
"H  c #99857B",
"J  c #666A85",
"K  c #686C87",
"L  c #6A6D8A",
"P  c #6D718E",
"I  c #717691",
"U  c #747A94",
"Y  c #7C839B",
"T  c #988582",
"R  c #958882",
"E  c #998985",
"W  c #908B89",
"Q  c #9D8D89",
"!  c #A48D84",
"~  c #A29188",
"^  c #A49693",
"/  c #AB9D9A",
"(  c #AFA29F",
")  c #BDA596",
"_  c #858FA3",
"`  c #8791A4",
"'  c #8D98A9",
"]  c #909CAC",
"[  c #94A1AF",
"{  c #95A2B0",
"}  c #ADACA2",
"|  c #B3A5A4",
" . c #BCB7AC",
".. c #BEB5B6",
"X. c #BFB9B7",
"o. c #C8BDAD",
"O. c #CECAC8",
"+. c #D1CFCE",
"@. c #DAD7D6",
"#. c #E1DAC5",
"$. c #EDDDC5",
"%. c #E0DCDB",
"&. c #EFE0C7",
"*. c #F1E2C8",
"=. c #E7E6E6",
"-. c #EAEAEA",
";. c #FFFCE2",
":. c #F4F2F1",
">. c #FDFCFC",
/* pixels */
"N M M M M M M M M M M M M x l x k k k l k 9 6 4 0 l l n m m N M M M M M M M M M M M M M M x z l k k k x s 0 7 3 9 s l l n m M V ",
"N M M N N B M M M N M M M M M M M M M l l d 0 4 0 0 0 0 z l m N M N M M M M V M M M M M N N M M N M M m z s s 6 9 s s s l l n N ",
"k s k k s k k k k k k s k k k k k s k s 9 9 6 3 7 9 0 0 s s k k k k k s k k k k k k k k k k k k k k k s 0 9 9 3 6 9 0 a s s d k ",
"4 4 4 4 4 4 4 < 3 4 4 4 4 4 4 4 4 4 4 4 4 4 4 4 4 4 4 2 4 4 4 4 4 4 4 4 4 4 4 3 < 4 4 4 4 4 4 4 3 4 4 4 4 4 4 4 4 4 < 4 3 4 4 4 ",
"m m m m m n 0 9 4 0 z M m M m m m m M m m m m m m m m m m m m m m m x T | | m s 3 9 l m m m M m m m m m M m m m M m m n m n m m ",
"N N M M M m n 9 6 0 l m m M M M M M M M V M C C C C C C N N M N V B Q O.-.-...x 3 0 d n m M M M N M M M M M C C C C C C V M V V ",
"N M M M M N z 9 4 6 8 p x h l M M V M M M M V V C C C N N N M M V M / o.E E +.B 4 6 8 p l h l m M M M M N M N V C V Z N V V V V ",
"N M M M M p k 0 4 0 6 l M m M M M M M M M M M M N V C N N N M M M M Z A B l v l 4 9 9 8 M m M M M M M M M M M M M V V V V V m V ",
"M M v M x k s 4 6 0 0 k M M M M M M M M M M V M M V M M M M M M M M m B M l h 9 3 0 0 0 m M M M M M M M M M M N M M M M M M M N ",
"N l a l 7 7 7 6 6 0 l k n M M M M M M M M V M M M M M M M M N M M l l l 9 7 8 7 3 0 d l z m N M N M M M N M N B M M B V M N N N ",
"l l l l l s 0 6 4 0 0 0 l l l l l l l l l l l l l l l l l l l l l l l l l k 0 9 3 8 0 0 k l l l l l l l l l l l z l l l l l l z ",
"3 4 4 3 4 3 4 3 4 3 3 3 3 4 4 < 4 3 4 3 3 3 3 3 3 3 W  .j 4 3 4 3 4 3 3 3 3 4 4 4 3 4 4 3 4 3 4 4 3 3 4 3 4 3 < < 3 3 4 4 3 3 4 ",
"m z m m m n n m n z n n z n n n m z m z n 0 9 4 9 l o.&.G m m z m x z z m z m z z n n n m n m z n m z n n d s 4 6 d n n z n m m ",
"V C V V N M M M V M V M M N M N M V M m z d 0 4 d m m N M M M M M C C V V V M M M N M M M M M N M M M m n z s 4 9 z m M N M M N ",
"V V C C N M M M B N M M M V M M V x k 8 9 8 4 4 0 l m N M M M M N V C D V M M E Q M M M M M M M V M l h p 6 6 < 0 d n M M M M V ",
"V V C C N M M M N M M M M M M M M M M M l s 0 4 0 9 l N M V M M M M h p x V ( :.>./ M M M M M M M M M M m a l 4 9 0 p M M M M N ",
"N M M M M M M M M M M M M M M M M M M m k 9 0 4 s 9 k m N N M x , 2 H } R M @.>.>.%.M M M M M M M M M M l p d 4 9 0 9 n M M M V ",
"N N M M M M M M M M N M N k h l 8 8 h k 8 6 6 4 s d n n m N V k . 4 *.;.#.~ ^ %.=./ M M M x l h a p p k 7 7 8 4 9 d l z m M M V ",
"m m z m m z m z z n m n m m z n z z n z l 0 7 4 9 d l z n m % * b S ;.;.&.! z Z A m n n x m z m n z z n z 0 s 4 6 0 l z n z n n ",
"< 3 4 3 4 4 3 4 4 3 4 4 4 3 4 3 4 3 4 4 4 3 3 3 3 3 2 3 2 3   @ b 5 h ) v 3 < < 3 4 3 4 3 4 4 3 4 4 3 4 3 4 3 3 4 4 < 4 4 4 4 4 ",
"l l l l l l 0 6 4 0 z l l l l l l l l l l l l l l l l l 6 , f t w f > > < 9 0 0 3 6 z l l l l l l l l l l l k l l l l l l l l z ",
"N M N m z z d 9 4 d k n m M N N M M M M M N N V C V C M %   [ ' Y ` P t   6 l 0 4 0 d z x m M V M M M M M M V V C V C C V B M N ",
"N M N M M n l 9 4 7 7 h x x x N M M M M M N V C D C D V %   f t w t > =   6 n 0 4 7 7 9 x x x m M M M V M M V C C C C C M M M N ",
"N M M M M k 0 9 4 9 7 k m l z M M M M M M M N N M C 6 %                   O # 9 4 6 0 9 z l m M M M M M V M M M M V C C V V M N ",
"N M M M m h 0 7 4 0 8 z M M M M M M M M N M M M p           P $ P P t             0 9 9 M M N M B M M M V M M M M M M M M M M V ",
"N l h l 8 8 6 4 6 d d m m M M M M V M M M N M k 8 $ i P P P P P P P P P J =     . 6 7 n n m M M N M M V M M M N M M M V M M M V ",
"M m z m z d d 8 6 0 0 k l m m m m m M m m m k   > P P P P P P P P P P P t w > o     % 0 n n m m m m m m m m m m m m m m m m m M ",
"4 4 4 4 4 4 4 3 3 4 4 4 4 4 4 4 4 4 4 4 4 % - t g P P P P P P P P P P P P u > o     . % * 4 4 4 4 4 4 4 4 4 4 4 4 4 4 4 4 4 4 4 ",
"s s k s k k k k k s k k k k k k k k k h k . O P U Y Y ` _ _ ` P P P P P P g u u r       , k k k k k k s k s 7 4 4 0 k s k k s k ",
"V C C C M M M M M M M N M M N M M M M x ,   c P I U I U U U U P P P P P P e J ; $       X h M M N N M x x s 9 4 0 0 z M m V V V ",
"M V D D V V M M M M M M M M M M M M l 6 O $ K U [ { { { [ U P P P P P P P P P P P t       6 M M M M l k a 7 9 4 9 0 k m M M M V ",
"M V V V V M M M M M M M M M M M M M M &   K P U ' ' [ ' ' U P P P P P P P P P P K $ O       h M N N M N l 6 0 6 9 0 6 M B M M M ",
"M M M M M M M M M M M M M k k k p p h &   K P P U ` ` Y I Y P P P P P P P P P P P J q       8 k h 8 p x 7 6 6 4 0 k m M M M M M ",
"N M M M M M M M M M M M M M M M m m n &   L P P U Y Y Y I Y P P P P P P P P P P P J u ;     8 M M m m M n l 0 4 0 0 0 0 n n M M ",
"M M m M M M M M M M M M M M M M N M m &   L P P P P P P P P P P P P P P P P P P P P P r     p M M M m m k 0 d 4 7 0 0 0 0 0 n M ",
"4 6 6 6 4 6 4 6 6 4 6 4 6 4 6 6 6 6 6 O   K P P P P P P P P P P P P P P P P P P P P P r     , 6 4 6 6 4 6 6 4 3 4 6 6 6 6 6 6 6 ",
"9 9 9 9 9 9 7 4 3 7 9 9 8 8 7 7 7 7 9 %   L P P P P P P P P P P P P P P P P P > L $ O       2 8 7 9 7 9 8 9 8 9 a 8 7 a 9 9 9 9 ",
"N M M M m n k 0 4 0 m M M M N M M M M &   r i P P P P P P P P P P P P P P P P P t t w       h M N N N M N N N N N N N N N N N N ",
"N M M M M M m 9 4 0 k n M M M M M M M &     w P P P P P P P P P P P P P P P P P q ;         a M M M M M N M C C F F F C M N N N ",
"N M M M M M n 9 4 6 8 7 l k k N M M M h O   q q u g g P P P P P P P P P P P P w > ;       & h m M M M M M M M M N V C C N N M N ",
"N M M M m 4 k 9 6 0 4 z M M M M M M M M &   O g J K K P P P P P P P P P P P P J   u       9 M M M M M M M M M M M M M M M N M N ",
"N l k x h h 7 4 6 d l n m M M N N M M M M X       o u P P P P P P P i r w $             2 M M M M M M M M M M M M M N M M M M N ",
"N m n m k s s 9 4 0 d 0 n M M M M M M M M & #     ; c g J L c g g J c c g J O         O 6 n M M M M M M M M M M M M M M M M M N ",
"8 8 8 8 7 8 8 4 3 6 7 6 7 7 6 7 8 8 7 8 8 7 4           ; J q q : o $               O 8 6 8 8 8 7 7 8 8 8 7 8 8 7 8 8 8 8 8 7 7 ",
"8 7 6 6 7 6 8 6 8 6 8 6 6 6 6 6 8 6 6 6 8 6 4 - %       ; > q > ; o $           . , 2 6 8 6 8 6 8 6 6 8 7 6 6 3 4 7 8 7 8 6 8 8 ",
"M M M M M M M M M M M M M M M M M M M M z 0 0 4 2                               . M M M M M M M M M M m m k 0 6 9 k m m M M M N ",
"N C C C N M N M M M M M M M M M M M x k k 9 6 4 0 s &                         h l M M M M M M M M M x l k a 7 4 9 l n M M M M N ",
"V C F F N M M M M M M M M M M M M M m l l k 6 4 0 l z M , % % % % % % % % h M M M M M M M M M M M M m z z k 0 4 0 0 z M N M M N ",
"N N N N M M M N M M V M M V M M N N N M 6 8 0 4 0 8 l M M M M M M M N N N M M M N N M M M M M M M M N M l 4 k 6 9 0 8 M M M M N ",
"N N M M M M M M M M M M M x x x j k l x k 7 8 4 0 0 l M M M M M M M M M M M M N M B M M M M x x x j l z k 7 9 4 9 0 k n N M N N ",
"N N M M N N M M V M M M V x x z k l z z k 0 0 3 d 0 l z M M M M N M M M M N N N M N V M V x z z l l l x k 0 0 4 9 0 n l m M N N ",
"0 a a 0 a a a s a a s a a a s a s 9 0 0 8 9 6 3 8 9 9 0 s a a 0 s h a a s a 9 0 s 9 a a s a a s a k 9 h 0 9 7 4 4 9 0 9 a a a s ",
"4 4 2 6 4 4 6 < 3 4 4 6 4 6 4 4 6 < 4 4 6 4 4 6 4 6 4 4 6 2 6 4 4 4 4 6 6 4 6 4 3 4 4 6 4 4 6 4 4 4 4 6 4 6 2 4 6 4 6 6 4 4 6 4 ",
"M M M m n n 0 7 4 d n n m M M M M M M M m M M M m M M M m M m M M M m m m n 0 0 3 9 n z z m M M M N m M m M M M m M m N M M M M ",
"N M M M m n 0 9 6 0 k m M M M M M M M M M M C C C D C C N M N M M M N M M n z 0 4 0 0 n M M M V M M M M N M V C C F C C M M M M ",
"N N M M M n n 0 4 6 6 6 l a l M N M M M M M N N V C C V N M M M N M M M N m n 0 4 6 6 6 k a l m M M M M M M N N N C C V N N M N ",
"M M N B m 6 0 9 4 0 6 l M m M N M M M N M M M M M V V V V M M M M M M M M k 6 k 4 s 7 p M m M M M M M M M M m V N N N N N N M N ",
"M M x M l k a 6 6 d 0 n m M M M M M B N M M M M M M M M M N M M M M M M k k k 8 1 s s s m M M M M M M M M B V M M M M M N N N N ",
"N l s z h p 7 6 4 0 d z z M M N M M M V N M M M N M N M M M M M M z l l k 9 7 9 4 s s k n n V M N M N N M M V M N M N M M M M N ",
"k k k k k s 0 6 4 9 0 0 0 k k k k k k k k k k k k k k k k k k k k k k k k s 0 7 < 6 0 s s k k k d k k k k k k k k k k k k k k l ",
"4 4 4 4 4 4 4 4 4 4 4 4 4 4 4 4 4 4 4 4 4 4 3 3 4 < 4 4 4 4 4 4 4 4 4 4 4 4 4 4 4 4 4 4 4 4 4 4 4 4 4 4 4 4 < 3 4 4 4 4 4 4 4 4 ",
"M m M m m m m m m m m n n m m m m m m m n l 9 3 0 z n n m m m m m m m M m m m m m m m m m m n n m m m m m n s 4 7 k n n m m m m ",
"N C C C N N N M B N M M M M M M M m x p 7 6 6 4 s d m M M M M M M C C C C M M M M M M M V B M M M M x k p 6 6 4 9 0 z m M M M N ",
"N C F F C V N N N N V V V M V V V M M m a s s 4 d 9 k B N V N N N N D D C C M C V M V V N N V V V V M m l 7 l 4 0 s 7 M N N N C "
};
