/* XPM */
static char *wall[] = {
/* columns rows colors chars-per-pixel */
"64 64 128 2 ",
"   c #343542",
".  c #353644",
"X  c #363644",
"o  c #383744",
"O  c #393844",
"+  c #3D3945",
"@  c #3E3945",
"#  c #3E3A45",
"$  c #3F3A45",
"%  c #403A45",
"&  c #433C45",
"*  c #463C45",
"=  c #4B3F46",
"-  c #4D3F46",
";  c #4F4146",
":  c #534246",
">  c #534347",
",  c #544247",
"<  c #544347",
"1  c #554347",
"2  c #564347",
"3  c #554447",
"4  c #564447",
"5  c #5A4447",
"6  c #5B4447",
"7  c #5C4547",
"8  c #5D4647",
"9  c #5F4647",
"0  c #524348",
"q  c #564548",
"w  c #574548",
"e  c #574649",
"r  c #584548",
"t  c #5E4748",
"y  c #5D4849",
"u  c #5E4949",
"i  c #5F4949",
"p  c #5D494A",
"a  c #5F494A",
"s  c #5E4A4B",
"d  c #604949",
"f  c #614949",
"g  c #624949",
"h  c #624A4A",
"j  c #634A4A",
"k  c #634B4A",
"l  c #654B4A",
"z  c #604C4B",
"x  c #634C4B",
"c  c #654C4B",
"v  c #674D4B",
"b  c #654E4C",
"n  c #674E4C",
"m  c #674F4D",
"M  c #694D4B",
"N  c #6A4D4A",
"B  c #684E4B",
"V  c #6C4F4B",
"C  c #684E4C",
"Z  c #6F504B",
"A  c #68504D",
"S  c #6B504D",
"D  c #69524E",
"F  c #6C504C",
"G  c #6D504C",
"H  c #6C514D",
"J  c #6E504C",
"K  c #6E514C",
"L  c #6F514C",
"P  c #70524D",
"I  c #71524D",
"U  c #71534D",
"Y  c #73524C",
"T  c #72534D",
"R  c #74524C",
"E  c #75534C",
"W  c #72544E",
"Q  c #73544E",
"!  c #73564E",
"~  c #73564F",
"^  c #74544E",
"/  c #74554E",
"(  c #74554F",
")  c #77554E",
"_  c #75564F",
"`  c #75574F",
"'  c #79574E",
"]  c #7A574F",
"[  c #7C574E",
"{  c #7B584F",
"}  c #7E584E",
"|  c #7F594F",
" . c #6B5650",
".. c #7D5A50",
"X. c #815C51",
"o. c #835D52",
"O. c #855F52",
"+. c #886153",
"@. c #8B6253",
"#. c #8B6254",
"$. c #8C6354",
"%. c #8F6354",
"&. c #8E6454",
"*. c #8F6454",
"=. c #916554",
"-. c #906655",
";. c #926655",
":. c #936756",
">. c #936856",
",. c #946856",
"<. c #956856",
"1. c #956956",
"2. c #966957",
"3. c #966A57",
"4. c #976A57",
"5. c #986B57",
"6. c #986C58",
"7. c #996D58",
"8. c #996D59",
"9. c #996E59",
"0. c #996F59",
"q. c #9A6F59",
"w. c #9A6F5A",
"e. c #9A705A",
"r. c #9B705A",
"t. c #9C725B",
"y. c #9D735B",
"u. c #9D745C",
/* pixels */
"        . . . . . . . . . . . . . . . . . . . . . . . . . . . . . . . . . . . . . . . . . . . . . . . . . . . . . . . . . . . . ",
"        . . . . . . . . . . . . . . . . . . . . . . . . . . . . . . . . . . . . . . . . . . . . . . . . . . . . . . . . . . . . ",
"        . . . . . . . . . . . . . . . . . . . . . . . . . . . . . . . . . . . . . . . . . . . . . . . . . . . . . . . . . . . . ",
"        . . . . . . . . . . . . . . . . . . . . . . . . . . . . . . . . . . . . . . . . . . . . . . . . . . . . . . . . . . . . ",
"        o o o o a a a a A A A A A A A A A A A A  . . . .D D D D A A A A b b b b - - - - x x x x m m m m q q q q . . . . . . . . ",
"        o o o o a a a a A A A A A A A A A A A A  . . . .D D D D A A A A b b b b - - - - x x x x m m m m q q q q . . . . . . . . ",
"        o o o o a a a a A A A A A A A A A A A A  . . . .D D D D A A A A b b b b - - - - x x x x m m m m q q q q . . . . . . . . ",
"        o o o o a a a a A A A A A A A A A A A A  . . . .D D D D A A A A b b b b - - - - x x x x m m m m q q q q . . . . . . . . ",
"        @ @ @ @ [ [ [ [ 2.2.2.2.4.4.4.4.4.4.4.4.9.9.9.9.8.8.8.8.1.1.1.1.X.X.X.X.5 5 5 5 ) ) ) ) :.:.:.:.Z Z Z Z . . . . . . . . ",
"        @ @ @ @ [ [ [ [ 2.2.2.2.4.4.4.4.4.4.4.4.9.9.9.9.8.8.8.8.1.1.1.1.X.X.X.X.5 5 5 5 ) ) ) ) :.:.:.:.Z Z Z Z . . . . . . . . ",
"        @ @ @ @ [ [ [ [ 2.2.2.2.4.4.4.4.4.4.4.4.9.9.9.9.8.8.8.8.1.1.1.1.X.X.X.X.5 5 5 5 ) ) ) ) :.:.:.:.Z Z Z Z . . . . . . . . ",
"        @ @ @ @ [ [ [ [ 2.2.2.2.4.4.4.4.4.4.4.4.9.9.9.9.8.8.8.8.1.1.1.1.X.X.X.X.5 5 5 5 ) ) ) ) :.:.:.:.Z Z Z Z . . . . . . . . ",
"        . . . . ; ; ; ; / / / / ( ( ( ( V V V V i i i i / / / / ` ` ` ` ` ` ` ` H H H H W W W W ( ( ( ( n n n n & & & & . . . . ",
"        . . . . ; ; ; ; / / / / ( ( ( ( V V V V i i i i / / / / ` ` ` ` ` ` ` ` H H H H W W W W ( ( ( ( n n n n & & & & . . . . ",
"        . . . . ; ; ; ; / / / / ( ( ( ( V V V V i i i i / / / / ` ` ` ` ` ` ` ` H H H H W W W W ( ( ( ( n n n n & & & & . . . . ",
"        . . . . ; ; ; ; / / / / ( ( ( ( V V V V i i i i / / / / ` ` ` ` ` ` ` ` H H H H W W W W ( ( ( ( n n n n & & & & . . . . ",
"        . . . . 4 4 4 4 %.%.%.%.+.+.+.+.G G G G 7 7 7 7 ;.;.;.;.6.6.6.6.e.e.e.e.4.4.4.4.4.4.4.4.3.3.3.3.@.@.@.@.: : : : . . . . ",
"        . . . . 4 4 4 4 %.%.%.%.+.+.+.+.G G G G 7 7 7 7 ;.;.;.;.6.6.6.6.e.e.e.e.4.4.4.4.4.4.4.4.3.3.3.3.@.@.@.@.: : : : . . . . ",
"        . . . . 4 4 4 4 %.%.%.%.+.+.+.+.G G G G 7 7 7 7 ;.;.;.;.6.6.6.6.e.e.e.e.4.4.4.4.4.4.4.4.3.3.3.3.@.@.@.@.: : : : . . . . ",
"        . . . . 4 4 4 4 %.%.%.%.+.+.+.+.G G G G 7 7 7 7 ;.;.;.;.6.6.6.6.e.e.e.e.4.4.4.4.4.4.4.4.3.3.3.3.@.@.@.@.: : : : . . . . ",
"        o o o o y y y y Q Q Q Q / / / / ! ! ! ! S S S S Q Q Q Q / / / / T T T T t t t t P P P P ^ ^ ^ ^ j j j j O O O O . . . . ",
"        o o o o y y y y Q Q Q Q / / / / ! ! ! ! S S S S Q Q Q Q / / / / T T T T t t t t P P P P ^ ^ ^ ^ j j j j O O O O . . . . ",
"        o o o o y y y y Q Q Q Q / / / / ! ! ! ! S S S S Q Q Q Q / / / / T T T T t t t t P P P P ^ ^ ^ ^ j j j j O O O O . . . . ",
"        o o o o y y y y Q Q Q Q / / / / ! ! ! ! S S S S Q Q Q Q / / / / T T T T t t t t P P P P ^ ^ ^ ^ j j j j O O O O . . . . ",
"        % % % % } } } } 2.2.2.2.4.4.4.4.r.r.r.r.w.w.w.w........./ / / / $.$.$.$.9 9 9 9 ' ' ' ' >.>.>.>.R R R R . . . . . . . . ",
"        % % % % } } } } 2.2.2.2.4.4.4.4.r.r.r.r.w.w.w.w........./ / / / $.$.$.$.9 9 9 9 ' ' ' ' >.>.>.>.R R R R . . . . . . . . ",
"        % % % % } } } } 2.2.2.2.4.4.4.4.r.r.r.r.w.w.w.w........./ / / / $.$.$.$.9 9 9 9 ' ' ' ' >.>.>.>.R R R R . . . . . . . . ",
"        % % % % } } } } 2.2.2.2.4.4.4.4.r.r.r.r.w.w.w.w........./ / / / $.$.$.$.9 9 9 9 ' ' ' ' >.>.>.>.R R R R . . . . . . . . ",
"        o o o o , , , , / / / / / / / / F F F F h h h h B B B B e e e e ~ ~ ~ ~ C C C C P P P P / / / / c c c c % % % % . . . . ",
"        o o o o , , , , / / / / / / / / F F F F h h h h B B B B e e e e ~ ~ ~ ~ C C C C P P P P / / / / c c c c % % % % . . . . ",
"        o o o o , , , , / / / / / / / / F F F F h h h h B B B B e e e e ~ ~ ~ ~ C C C C P P P P / / / / c c c c % % % % . . . . ",
"        o o o o , , , , / / / / / / / / F F F F h h h h B B B B e e e e ~ ~ ~ ~ C C C C P P P P / / / / c c c c % % % % . . . . ",
"        . . . . > > > > =.=.=.=.+.+.+.+.J J J J g g g g o.o.o.o.p p p p 0.0.0.0.6.6.6.6.4.4.4.4.2.2.2.2.&.&.&.&.: : : : . . . . ",
"        . . . . > > > > =.=.=.=.+.+.+.+.J J J J g g g g o.o.o.o.p p p p 0.0.0.0.6.6.6.6.4.4.4.4.2.2.2.2.&.&.&.&.: : : : . . . . ",
"        . . . . > > > > =.=.=.=.+.+.+.+.J J J J g g g g o.o.o.o.p p p p 0.0.0.0.6.6.6.6.4.4.4.4.2.2.2.2.&.&.&.&.: : : : . . . . ",
"        . . . . > > > > =.=.=.=.+.+.+.+.J J J J g g g g o.o.o.o.p p p p 0.0.0.0.6.6.6.6.4.4.4.4.2.2.2.2.&.&.&.&.: : : : . . . . ",
"        o o o o 2 2 2 2 V V V V L L L L N N N N f f f f h h h h w w w w V V V V k k k k I I I I U U U U l l l l + + + + . . . . ",
"        o o o o 2 2 2 2 V V V V L L L L N N N N f f f f h h h h w w w w V V V V k k k k I I I I U U U U l l l l + + + + . . . . ",
"        o o o o 2 2 2 2 V V V V L L L L N N N N f f f f h h h h w w w w V V V V k k k k I I I I U U U U l l l l + + + + . . . . ",
"        o o o o 2 2 2 2 V V V V L L L L N N N N f f f f h h h h w w w w V V V V k k k k I I I I U U U U l l l l + + + + . . . . ",
"        + + + + } } } } 2.2.2.2.4.4.4.4.5.5.5.5.y.y.y.y.q.q.q.q.2.2.2.2.O.O.O.O.6 6 6 6 { { { { <.<.<.<.Y Y Y Y . . . . . . . . ",
"        + + + + } } } } 2.2.2.2.4.4.4.4.5.5.5.5.y.y.y.y.q.q.q.q.2.2.2.2.O.O.O.O.6 6 6 6 { { { { <.<.<.<.Y Y Y Y . . . . . . . . ",
"        + + + + } } } } 2.2.2.2.4.4.4.4.5.5.5.5.y.y.y.y.q.q.q.q.2.2.2.2.O.O.O.O.6 6 6 6 { { { { <.<.<.<.Y Y Y Y . . . . . . . . ",
"        + + + + } } } } 2.2.2.2.4.4.4.4.5.5.5.5.y.y.y.y.q.q.q.q.2.2.2.2.O.O.O.O.6 6 6 6 { { { { <.<.<.<.Y Y Y Y . . . . . . . . ",
"        o o o o 1 1 1 1 ( ( ( ( _ _ _ _ P P P P v v v v / / / / / / / / K K K K h h h h G G G G Q Q Q Q u u u u + + + + . . . . ",
"        o o o o 1 1 1 1 ( ( ( ( _ _ _ _ P P P P v v v v / / / / / / / / K K K K h h h h G G G G Q Q Q Q u u u u + + + + . . . . ",
"        o o o o 1 1 1 1 ( ( ( ( _ _ _ _ P P P P v v v v / / / / / / / / K K K K h h h h G G G G Q Q Q Q u u u u + + + + . . . . ",
"        o o o o 1 1 1 1 ( ( ( ( _ _ _ _ P P P P v v v v / / / / / / / / K K K K h h h h G G G G Q Q Q Q u u u u + + + + . . . . ",
"        . . . . 3 3 3 3 ;.;.;.;.-.-.-.-.T T T T t t t t ,.,.,.,.7.7.7.7.t.t.t.t.4.4.4.4.4.4.4.4.4.4.4.4.*.*.*.*.: : : : . . . . ",
"        . . . . 3 3 3 3 ;.;.;.;.-.-.-.-.T T T T t t t t ,.,.,.,.7.7.7.7.t.t.t.t.4.4.4.4.4.4.4.4.4.4.4.4.*.*.*.*.: : : : . . . . ",
"        . . . . 3 3 3 3 ;.;.;.;.-.-.-.-.T T T T t t t t ,.,.,.,.7.7.7.7.t.t.t.t.4.4.4.4.4.4.4.4.4.4.4.4.*.*.*.*.: : : : . . . . ",
"        . . . . 3 3 3 3 ;.;.;.;.-.-.-.-.T T T T t t t t ,.,.,.,.7.7.7.7.t.t.t.t.4.4.4.4.4.4.4.4.4.4.4.4.*.*.*.*.: : : : . . . . ",
"        X X X X < < < < P P P P F F F F M M M M d d d d I I I I / / / / Q Q Q Q v v v v T T T T Q Q Q Q l l l l $ $ $ $ . . . . ",
"        X X X X < < < < P P P P F F F F M M M M d d d d I I I I / / / / Q Q Q Q v v v v T T T T Q Q Q Q l l l l $ $ $ $ . . . . ",
"        X X X X < < < < P P P P F F F F M M M M d d d d I I I I / / / / Q Q Q Q v v v v T T T T Q Q Q Q l l l l $ $ $ $ . . . . ",
"        X X X X < < < < P P P P F F F F M M M M d d d d I I I I / / / / Q Q Q Q v v v v T T T T Q Q Q Q l l l l $ $ $ $ . . . . ",
"        # # # # | | | | 2.2.2.2.4.4.4.4.5.5.5.5.u.u.u.u.q.q.q.q.3.3.3.3.#.#.#.#.8 8 8 8 ] ] ] ] <.<.<.<.E E E E . . . . . . . . ",
"        # # # # | | | | 2.2.2.2.4.4.4.4.5.5.5.5.u.u.u.u.q.q.q.q.3.3.3.3.#.#.#.#.8 8 8 8 ] ] ] ] <.<.<.<.E E E E . . . . . . . . ",
"        # # # # | | | | 2.2.2.2.4.4.4.4.5.5.5.5.u.u.u.u.q.q.q.q.3.3.3.3.#.#.#.#.8 8 8 8 ] ] ] ] <.<.<.<.E E E E . . . . . . . . ",
"        # # # # | | | | 2.2.2.2.4.4.4.4.5.5.5.5.u.u.u.u.q.q.q.q.3.3.3.3.#.#.#.#.8 8 8 8 ] ] ] ] <.<.<.<.E E E E . . . . . . . . ",
"        o o o o < < < < z z z z z z z z z z z z z z z z z z z z s s s s 0 0 0 0 * * * * r r r r s s s s = = = = . . . . . . . . ",
"        o o o o < < < < z z z z z z z z z z z z z z z z z z z z s s s s 0 0 0 0 * * * * r r r r s s s s = = = = . . . . . . . . ",
"        o o o o < < < < z z z z z z z z z z z z z z z z z z z z s s s s 0 0 0 0 * * * * r r r r s s s s = = = = . . . . . . . . ",
"        o o o o < < < < z z z z z z z z z z z z z z z z z z z z s s s s 0 0 0 0 * * * * r r r r s s s s = = = = . . . . . . . . "
};
